<svg xmlns="http://www.w3.org/2000/svg" xmlns:xlink="http://www.w3.org/1999/xlink" width="39.216" height="41.432" viewBox="0 0 39.216 41.432">
  <defs>
    <clipPath id="clip-path">
      <rect id="Rectangle_383" data-name="Rectangle 383" width="39.216" height="41.431" fill="none"/>
    </clipPath>
  </defs>
  <g id="Group_415" data-name="Group 415" transform="translate(0 0)">
    <g id="Group_414" data-name="Group 414" transform="translate(0 0)" clip-path="url(#clip-path)">
      <path id="Path_374" data-name="Path 374" d="M43.069,4.426a6.246,6.246,0,1,1-7.8-4.154,6.246,6.246,0,0,1,7.8,4.154" transform="translate(-4.126 0)" fill="#fff"/>
      <path id="Path_375" data-name="Path 375" d="M43.069,37.831a6.246,6.246,0,1,1-7.8-4.154,6.246,6.246,0,0,1,7.8,4.154" transform="translate(-4.126 -4.468)" fill="#fff"/>
      <path id="Path_376" data-name="Path 376" d="M12.222,22.207a6.246,6.246,0,1,1-7.8-4.154,6.246,6.246,0,0,1,7.8,4.154" transform="translate(0 -2.379)" fill="#fff"/>
      <path id="Path_377" data-name="Path 377" d="M6.914,24.255a1.939,1.939,0,0,1-.97-3.618l26.721-15.4A1.938,1.938,0,1,1,34.6,8.592L7.881,24a1.932,1.932,0,0,1-.967.26" transform="translate(-0.665 -0.666)" fill="#fff"/>
      <path id="Path_378" data-name="Path 378" d="M33.632,40.167a1.931,1.931,0,0,1-.874-.21L6.037,26.424a1.938,1.938,0,0,1,1.752-3.458L34.509,36.5a1.939,1.939,0,0,1-.878,3.668" transform="translate(-0.665 -3.044)" fill="#fff"/>
    </g>
  </g>
</svg>
