<svg xmlns="http://www.w3.org/2000/svg" width="519.999" height="67.593" viewBox="0 0 519.999 67.593">
  <g id="Group_489" data-name="Group 489" transform="translate(-110 -1339.909)">
    <path id="Subtraction_1" data-name="Subtraction 1" d="M15845-1092.084h-1V-1127a9.008,9.008,0,0,0-9-9h-386v-1h386a10.008,10.008,0,0,1,10,10Zm-519,0h-1V-1127a10.011,10.011,0,0,1,10-10h23v1h-23a9.01,9.01,0,0,0-9,9Z" transform="translate(-15215 2499.585)" fill="#fff"/>
    <path id="Quotation_Mark" data-name="Quotation Mark" d="M5,46.644A13.525,13.525,0,0,0,16.12,51.985a13,13,0,0,0,9.146-3.439A10.85,10.85,0,0,0,29,40.278q0-5.415-2.854-8.268a9.635,9.635,0,0,0-7.1-2.854,10.391,10.391,0,0,0-4.683,1.171,9.7,9.7,0,0,1-.146-2.049A8.539,8.539,0,0,1,17.8,21.254q3.585-2.78,10.317-2.927V7.644Q15.388,7.79,8.071,14.229T.754,32.815Q.754,41.3,5,46.644Zm31.756,0a13.525,13.525,0,0,0,11.122,5.341,13,13,0,0,0,9.146-3.439,10.85,10.85,0,0,0,3.732-8.268q0-5.415-2.854-8.268a9.635,9.635,0,0,0-7.1-2.854,10.391,10.391,0,0,0-4.683,1.171,9.7,9.7,0,0,1-.146-2.049,8.539,8.539,0,0,1,3.585-7.024q3.585-2.78,10.317-2.927V7.644q-12.732.146-20.049,6.585T32.51,32.815Q32.51,41.3,36.754,46.644Z" transform="translate(157.246 1332.771)" fill="none" stroke="#fff" stroke-width="1"/>
  </g>
</svg>
