<svg xmlns="http://www.w3.org/2000/svg" xmlns:xlink="http://www.w3.org/1999/xlink" width="40.143" height="43.31" viewBox="0 0 40.143 43.31">
  <defs>
    <clipPath id="clip-path">
      <rect id="Rectangle_379" data-name="Rectangle 379" width="40.143" height="43.31" fill="none"/>
    </clipPath>
  </defs>
  <g id="Group_407" data-name="Group 407" transform="translate(0 0)">
    <g id="Group_406" data-name="Group 406" transform="translate(0 0)" clip-path="url(#clip-path)">
      <path id="Path_357" data-name="Path 357" d="M39.273,16.373a1.85,1.85,0,1,0-3.3,1.677A15.42,15.42,0,0,1,12.846,37.275l3.721-.518a1.4,1.4,0,0,0,1.184-1.584h0a1.4,1.4,0,0,0-1.581-1.183L8.525,35.061a1.681,1.681,0,0,0-1.4,2.02L8.75,44.866a1.4,1.4,0,0,0,1.362,1.1,1.4,1.4,0,0,0,1.369-1.693l-.84-4.029A19.118,19.118,0,0,0,39.273,16.373" transform="translate(-1.224 -2.656)" fill="#fff"/>
      <path id="Path_358" data-name="Path 358" d="M8.244,10.183A15.392,15.392,0,0,1,28.352,8.726L24.635,9.3a1.4,1.4,0,0,0,.218,2.779,1.49,1.49,0,0,0,.218-.017l7.63-1.179A1.682,1.682,0,0,0,34.076,8.84L32.338,1.079A1.388,1.388,0,0,0,31.715.21a1.4,1.4,0,0,0-1.926.45,1.387,1.387,0,0,0-.175,1.052l.9,4.011A19.121,19.121,0,0,0,2.217,30a1.851,1.851,0,1,0,3.276-1.724,15.356,15.356,0,0,1,2.751-18.09" transform="translate(0 0)" fill="#fff"/>
    </g>
  </g>
</svg>
