<svg xmlns="http://www.w3.org/2000/svg" width="94.055" height="55.263" viewBox="0 0 94.055 55.263">
  <path id="_04" data-name="04" d="M1.225,1.2V3.641A31.844,31.844,0,0,0,4.007,17.474a20.931,20.931,0,0,0,7.736,8.955,20.97,20.97,0,0,0,11.432,3.125,21.162,21.162,0,0,0,11.47-3.125,20.842,20.842,0,0,0,7.774-8.955A31.844,31.844,0,0,0,45.2,3.641V1.2a31.713,31.713,0,0,0-2.782-13.718,21.055,21.055,0,0,0-7.774-9.031,20.97,20.97,0,0,0-11.47-3.163A20.832,20.832,0,0,0,11.78-21.547a21.055,21.055,0,0,0-7.774,9.031A31.713,31.713,0,0,0,1.225,1.2Zm29.99-12.156q3.01,4.458,3.01,12.537V3.26q0,8.079-3.01,12.537a9.411,9.411,0,0,1-16,0Q12.2,11.339,12.2,3.26V1.583q0-8.079,3.01-12.537a9.206,9.206,0,0,1,7.964-4.458A9.269,9.269,0,0,1,31.215-10.954ZM49.772,8.595v9.069h26.37V29.1H86.888V17.664H94.28V8.519H86.888V-24.253H73.322Zm10.441-.076,15.928-22.1v22.1Z" transform="translate(-0.725 25.21)" fill="none" stroke="#fff" stroke-width="1"/>
</svg>
