<svg xmlns="http://www.w3.org/2000/svg" width="61" height="45.347" viewBox="0 0 61 45.347">
  <path id="Quote" d="M5,46.644A13.525,13.525,0,0,0,16.12,51.985a13,13,0,0,0,9.146-3.439A10.85,10.85,0,0,0,29,40.278q0-5.415-2.854-8.268a9.635,9.635,0,0,0-7.1-2.854,10.391,10.391,0,0,0-4.683,1.171,9.7,9.7,0,0,1-.146-2.049A8.539,8.539,0,0,1,17.8,21.254q3.585-2.78,10.317-2.927V7.644Q15.388,7.79,8.071,14.229T.754,32.815Q.754,41.3,5,46.644Zm31.756,0a13.525,13.525,0,0,0,11.122,5.341,13,13,0,0,0,9.146-3.439,10.85,10.85,0,0,0,3.732-8.268q0-5.415-2.854-8.268a9.635,9.635,0,0,0-7.1-2.854,10.391,10.391,0,0,0-4.683,1.171,9.7,9.7,0,0,1-.146-2.049,8.539,8.539,0,0,1,3.585-7.024q3.585-2.78,10.317-2.927V7.644q-12.732.146-20.049,6.585T32.51,32.815Q32.51,41.3,36.754,46.644Z" transform="translate(-0.254 -7.138)" fill="none" stroke="#fff" stroke-width="1"/>
</svg>
