<svg xmlns="http://www.w3.org/2000/svg" width="18.071" height="14.682" viewBox="0 0 18.071 14.682">
  <path id="Twitter" d="M648.14-441.522a7.712,7.712,0,0,1-2.133.585,3.688,3.688,0,0,0,1.629-2.048,7.437,7.437,0,0,1-2.35.9,3.712,3.712,0,0,0-2.706-1.173,3.7,3.7,0,0,0-3.7,3.705,3.818,3.818,0,0,0,.085.845,10.485,10.485,0,0,1-7.635-3.875,3.733,3.733,0,0,0-.508,1.873,3.71,3.71,0,0,0,1.646,3.079,3.659,3.659,0,0,1-1.675-.456v.041a3.723,3.723,0,0,0,2.97,3.64,3.71,3.71,0,0,1-.972.122,3.267,3.267,0,0,1-.7-.064,3.74,3.74,0,0,0,3.462,2.581,7.444,7.444,0,0,1-4.593,1.58,7.053,7.053,0,0,1-.887-.051,10.431,10.431,0,0,0,5.684,1.662A10.471,10.471,0,0,0,646.3-439.12c0-.163,0-.322-.013-.478A7.4,7.4,0,0,0,648.14-441.522Z" transform="translate(-630.069 443.26)" fill="#fff"/>
</svg>
