<?xml version="1.0" encoding="utf-8"?>
<!-- Generator: Adobe Illustrator 25.2.3, SVG Export Plug-In . SVG Version: 6.00 Build 0)  -->
<svg version="1.1" id="Layer_1" xmlns="http://www.w3.org/2000/svg" xmlns:xlink="http://www.w3.org/1999/xlink" x="0px" y="0px"
	 viewBox="0 0 95.6 55.6" style="enable-background:new 0 0 95.6 55.6;" xml:space="preserve">
<style type="text/css">
	.st0{fill:#FA9527;}
	.st1{fill:#FFFFFF;}
</style>
<g id="Popular_Bar" transform="translate(-1074.388 -2979.602)">
	<path id="Popular_Ribbon" class="st0" d="M1113.9,2979.6l56.1,31.9l0,23.6l-95.4-55.5L1113.9,2979.6z"/>
	<path id="Path_444" class="st1" d="M1119.6,2990.1l-2.2-1.3l-3.2,5.5l1.2,0.7l1.1-1.8l1.1,0.6c0.4,0.2,0.8,0.3,1.2,0.4
		c0.4,0,0.7-0.1,1.1-0.2c0.3-0.2,0.6-0.5,0.8-0.8c0.2-0.3,0.3-0.7,0.3-1.1c0-0.4-0.1-0.7-0.3-1
		C1120.2,2990.6,1119.9,2990.3,1119.6,2990.1z M1117,2992.2l1-1.7l0.9,0.5c0.2,0.1,0.4,0.3,0.5,0.6c0.1,0.3,0,0.5-0.1,0.8
		c-0.1,0.2-0.3,0.4-0.6,0.5c-0.3,0.1-0.6,0-0.8-0.2L1117,2992.2z M1124.8,2998.7c0.5-0.3,0.9-0.7,1.2-1.2c0.3-0.5,0.5-1.1,0.5-1.6
		c0-0.5-0.1-1.1-0.4-1.5c-0.6-1-1.7-1.6-2.8-1.6c-0.5,0-1.1,0.2-1.5,0.4c-0.5,0.3-0.9,0.7-1.2,1.2c-0.3,0.5-0.5,1.1-0.5,1.6
		c0,0.5,0.1,1.1,0.4,1.5c0.6,1,1.7,1.6,2.8,1.6C1123.9,2999.2,1124.4,2999,1124.8,2998.7z M1121.4,2996.1c0-0.4,0.2-0.7,0.3-1
		c0.2-0.3,0.4-0.6,0.7-0.8c0.3-0.2,0.6-0.3,0.9-0.3c0.7,0,1.3,0.3,1.6,0.9c0.1,0.3,0.2,0.6,0.2,0.9c0,0.4-0.2,0.7-0.3,1
		c-0.2,0.3-0.4,0.6-0.7,0.8c-0.3,0.2-0.6,0.3-0.9,0.3c-0.7,0-1.3-0.3-1.6-0.9C1121.5,2996.7,1121.4,2996.4,1121.4,2996.1z
		 M1130.7,2996.6l-2.2-1.3l-3.2,5.5l1.2,0.7l1.1-1.8l1.1,0.6c0.4,0.2,0.8,0.3,1.2,0.4c0.4,0,0.7-0.1,1.1-0.2
		c0.3-0.2,0.6-0.5,0.8-0.8c0.2-0.3,0.3-0.7,0.3-1.1c0-0.4-0.1-0.7-0.3-1C1131.4,2997,1131.1,2996.8,1130.7,2996.6z M1128.1,2998.6
		l1-1.7l0.9,0.5c0.2,0.1,0.4,0.3,0.5,0.6c0.1,0.3,0,0.5-0.1,0.8c-0.1,0.2-0.3,0.4-0.6,0.5c-0.3,0.1-0.6,0-0.8-0.2L1128.1,2998.6z
		 M1134.7,2998.8l-1.2-0.7l-1.8,3.1c-0.4,0.6-0.6,1.4-0.5,2.1c0.5,1.4,1.9,2.2,3.3,1.9c0.7-0.3,1.3-0.8,1.6-1.5l1.8-3.1l-1.2-0.7
		l-1.8,3.2c-0.2,0.4-0.5,0.7-0.8,0.8c-0.3,0.1-0.7,0.1-1-0.1c-0.3-0.2-0.6-0.5-0.6-0.8c0-0.4,0.1-0.8,0.3-1.1L1134.7,2998.8z
		 M1135.9,3006.8l3.3,1.9l0.6-1l-2.2-1.2l2.6-4.5l-1.2-0.7L1135.9,3006.8z M1139.7,3009l1.2,0.7l1.1-0.9l2.1,1.2l-0.3,1.4l1.3,0.7
		l1.2-6.6l-1.4-0.8L1139.7,3009z M1142.9,3008l1.9-1.7l-0.5,2.5L1142.9,3008z M1151.1,3008.4l-2.2-1.3l-3.2,5.5l1.2,0.7l1.1-1.8
		l1,0.6l-0.1,2.4l1.3,0.7l0.1-2.7c0.4,0,0.7,0,1-0.2c0.3-0.2,0.6-0.4,0.8-0.8c0.2-0.3,0.3-0.7,0.3-1.1c0-0.4-0.1-0.7-0.3-1
		C1151.8,3008.8,1151.5,3008.6,1151.1,3008.4z M1148.5,3010.4l1-1.7l1,0.6c0.2,0.1,0.4,0.3,0.5,0.6c0.1,0.3,0,0.5-0.1,0.8
		c-0.1,0.2-0.3,0.4-0.6,0.5c-0.3,0.1-0.6,0-0.8-0.2L1148.5,3010.4z"/>
</g>
</svg>
