<svg xmlns="http://www.w3.org/2000/svg" xmlns:xlink="http://www.w3.org/1999/xlink" width="33.798" height="45.752" viewBox="0 0 33.798 45.752">
  <defs>
    <clipPath id="clip-path">
      <rect id="Rectangle_378" data-name="Rectangle 378" width="33.798" height="45.752" fill="none"/>
    </clipPath>
  </defs>
  <g id="Group_402" data-name="Group 402" transform="translate(-17 -10)">
    <g id="Group_405" data-name="Group 405" transform="translate(17 10)">
      <g id="Group_404" data-name="Group 404" transform="translate(0 0)" clip-path="url(#clip-path)">
        <path id="Path_354" data-name="Path 354" d="M10.638,42.631H7.1a3.266,3.266,0,0,1-1.063-.173L3,49.633l6.632-2.34,3.114,5.849,2.578-7.884L12.6,43.274a3.343,3.343,0,0,0-1.961-.643" transform="translate(-0.529 -7.481)" fill="#fff"/>
        <path id="Path_355" data-name="Path 355" d="M31.366,42.6H27.824a3.387,3.387,0,0,0-1.969.643l-2.414,1.755L26.769,53.2,29.8,46.855l6.343,1.928-3.312-6.524a3.391,3.391,0,0,1-1.466.338" transform="translate(-4.13 -7.446)" fill="#fff"/>
        <path id="Path_356" data-name="Path 356" d="M32.746,18.2a1.975,1.975,0,0,1,0-1.2l.881-2.709A3.424,3.424,0,0,0,32.38,10.44L30.07,8.761a1.96,1.96,0,0,1-.7-.974l-.881-2.7A3.412,3.412,0,0,0,25.221,2.7H22.37a1.934,1.934,0,0,1-1.143-.368L18.918.656a3.437,3.437,0,0,0-4.043,0L12.568,2.335a1.957,1.957,0,0,1-1.137.369H8.58a3.433,3.433,0,0,0-3.27,2.375L4.426,7.792a1.929,1.929,0,0,1-.7.97L1.416,10.439a3.441,3.441,0,0,0-1.25,3.845l.881,2.7a1.98,1.98,0,0,1,0,1.205L.166,20.906a3.439,3.439,0,0,0,1.249,3.84l2.31,1.678a1.935,1.935,0,0,1,.7.973l.881,2.709a3.423,3.423,0,0,0,3.27,2.376h2.851a1.957,1.957,0,0,1,1.136.368l2.306,1.676a2.436,2.436,0,0,0,.339.213,3.4,3.4,0,0,0,3.565-.119,1.112,1.112,0,0,0,.143-.093l2.307-1.676a1.934,1.934,0,0,1,1.144-.369h2.851a3.428,3.428,0,0,0,3.262-2.376l.881-2.7a1.959,1.959,0,0,1,.708-.979l2.307-1.676A3.424,3.424,0,0,0,33.627,20.9ZM19.108,27.06H15.549V16.014a2.763,2.763,0,0,1-.938.123H11.718V13.2h2.595a1.1,1.1,0,0,0,.976-.507,2.221,2.221,0,0,0,.334-1.248V9.761h3.484Z" transform="translate(0 0)" fill="#fff"/>
      </g>
    </g>
  </g>
</svg>
