<svg xmlns="http://www.w3.org/2000/svg" width="89.406" height="55.34" viewBox="0 0 89.406 55.34">
  <path id="_03" data-name="03" d="M1.225,1.244V3.682A31.844,31.844,0,0,0,4.007,17.515a20.931,20.931,0,0,0,7.736,8.955,20.97,20.97,0,0,0,11.432,3.125,21.162,21.162,0,0,0,11.47-3.125,20.842,20.842,0,0,0,7.774-8.955A31.844,31.844,0,0,0,45.2,3.682V1.244a31.713,31.713,0,0,0-2.782-13.718,21.055,21.055,0,0,0-7.774-9.031,20.97,20.97,0,0,0-11.47-3.163A20.832,20.832,0,0,0,11.78-21.506a21.055,21.055,0,0,0-7.774,9.031A31.713,31.713,0,0,0,1.225,1.244Zm29.99-12.156q3.01,4.458,3.01,12.537V3.3q0,8.079-3.01,12.537a9.411,9.411,0,0,1-16,0Q12.2,11.38,12.2,3.3V1.625q0-8.079,3.01-12.537a9.206,9.206,0,0,1,7.964-4.458A9.269,9.269,0,0,1,31.215-10.912ZM70.731,3.911l-20.2,16.767v8.46h39.1V19.916H66.387L78.352,10.16A41.782,41.782,0,0,0,86.7,1.587,16.532,16.532,0,0,0,89.4-7.9q0-7.7-5.144-12.27T69.74-24.745a21.623,21.623,0,0,0-10.212,2.324,16.7,16.7,0,0,0-6.821,6.44,17.817,17.817,0,0,0-2.4,9.146v1.448H61.357v-.838a9.6,9.6,0,0,1,2.324-6.783,7.868,7.868,0,0,1,6.059-2.515,8.925,8.925,0,0,1,6.211,2.1,7.641,7.641,0,0,1,2.324,5.983A9.578,9.578,0,0,1,76.447-1.8,30.062,30.062,0,0,1,70.731,3.911Z" transform="translate(-0.725 25.245)" fill="none" stroke="#fff" stroke-width="1"/>
</svg>
