<svg xmlns="http://www.w3.org/2000/svg" width="71" height="52.737" viewBox="0 0 71 52.737">
  <path id="Quote_Marks" data-name="Quote Marks" d="M65.8,53.144a15.779,15.779,0,0,1-12.976,6.232,15.165,15.165,0,0,1-10.671-4.012A12.659,12.659,0,0,1,37.8,45.717q0-6.317,3.329-9.646a11.241,11.241,0,0,1,8.28-3.329,12.123,12.123,0,0,1,5.463,1.366,11.311,11.311,0,0,0,.171-2.39,9.962,9.962,0,0,0-4.183-8.2q-4.183-3.244-12.037-3.415V7.644q14.854.171,23.39,7.683T70.754,37.01Q70.754,46.912,65.8,53.144Zm-37.049,0a15.779,15.779,0,0,1-12.976,6.232A15.165,15.165,0,0,1,5.108,55.363,12.659,12.659,0,0,1,.754,45.717q0-6.317,3.329-9.646a11.241,11.241,0,0,1,8.28-3.329,12.123,12.123,0,0,1,5.463,1.366A11.312,11.312,0,0,0,18,31.717a9.962,9.962,0,0,0-4.183-8.2Q9.632,20.278,1.778,20.107V7.644q14.854.171,23.39,7.683T33.705,37.01Q33.705,46.912,28.754,53.144Z" transform="translate(-0.254 -7.138)" fill="none" stroke="#fff" stroke-width="1"/>
</svg>
