<svg xmlns="http://www.w3.org/2000/svg" width="90.765" height="54.893" viewBox="0 0 90.765 54.893">
  <path id="_05" data-name="05" d="M24.425,21.55a21.413,21.413,0,0,1,11.66,3.219,21.5,21.5,0,0,1,7.905,9.178A32.133,32.133,0,0,1,46.8,47.785v2.422A32.263,32.263,0,0,1,43.989,64.16a21.285,21.285,0,0,1-7.907,9.1,21.605,21.605,0,0,1-11.657,3.18A21.413,21.413,0,0,1,12.8,73.262a21.375,21.375,0,0,1-7.868-9.1A32.262,32.262,0,0,1,2.125,50.207V47.785A32.133,32.133,0,0,1,4.936,33.947a21.5,21.5,0,0,1,7.905-9.178A21.276,21.276,0,0,1,24.425,21.55Zm0,53.884a20.613,20.613,0,0,0,11.122-3.026,20.293,20.293,0,0,0,7.532-8.682,31.271,31.271,0,0,0,2.713-13.519V47.785a31.139,31.139,0,0,0-2.714-13.406,20.506,20.506,0,0,0-7.533-8.758,20.421,20.421,0,0,0-11.12-3.062,20.284,20.284,0,0,0-11.044,3.062,20.506,20.506,0,0,0-7.533,8.758A31.138,31.138,0,0,0,3.134,47.785v2.422A31.27,31.27,0,0,0,5.847,63.726a20.382,20.382,0,0,0,7.5,8.683A20.421,20.421,0,0,0,24.425,75.434ZM53.914,22H89.635V32.17H64.787l-.52,10.137a16.088,16.088,0,0,1,10.409-3.426,18.514,18.514,0,0,1,9.294,2.374,17.149,17.149,0,0,1,6.547,6.625,19.546,19.546,0,0,1,2.372,9.668,18.551,18.551,0,0,1-2.768,10.3,17.623,17.623,0,0,1-7.437,6.425A24.3,24.3,0,0,1,72.33,76.443,23.513,23.513,0,0,1,61.582,74.08a17.989,17.989,0,0,1-7.237-6.463,18.55,18.55,0,0,1-2.8-9.138l-.024-.528h11.8l.054.443a9.24,9.24,0,0,0,2.907,5.821A8.606,8.606,0,0,0,72.33,66.5a8.7,8.7,0,0,0,6.054-2.327,8.571,8.571,0,0,0,2.523-6.628,9.217,9.217,0,0,0-2.362-6.505,8.015,8.015,0,0,0-6.215-2.526,11.557,11.557,0,0,0-5.077,1.2A6.568,6.568,0,0,0,63.876,53.7l-.118.338H52.351Zm34.713,1.009H54.875L53.41,53.033h9.638a7.534,7.534,0,0,1,3.764-4.225,12.558,12.558,0,0,1,5.518-1.3,9.088,9.088,0,0,1,6.954,2.848,10.193,10.193,0,0,1,2.632,7.192,9.532,9.532,0,0,1-2.85,7.372,10.1,10.1,0,0,1-13.474.036,10.154,10.154,0,0,1-3.16-6H52.583A17.46,17.46,0,0,0,55.2,67.08a17,17,0,0,0,6.84,6.1A22.518,22.518,0,0,0,72.33,75.434a23.3,23.3,0,0,0,9.928-2.072A16.628,16.628,0,0,0,89.276,67.3a17.565,17.565,0,0,0,2.6-9.752,18.551,18.551,0,0,0-2.244-9.176,16.154,16.154,0,0,0-6.167-6.241,17.518,17.518,0,0,0-8.794-2.242,16.864,16.864,0,0,0-5.9.99,13.9,13.9,0,0,0-4.729,2.958l-.915.867.695-13.544h24.8Zm-64.2,7.77a9.721,9.721,0,0,1,8.4,4.649c2.041,3.023,3.076,7.306,3.076,12.732v1.665c0,5.425-1.035,9.709-3.076,12.732a9.849,9.849,0,0,1-16.729,0c-2.041-3.023-3.076-7.306-3.076-12.732V48.164c0-5.425,1.035-9.709,3.076-12.732A9.658,9.658,0,0,1,24.425,30.783Zm0,35.418a8.652,8.652,0,0,0,4.249-1.044A9.789,9.789,0,0,0,31.991,62c1.926-2.853,2.9-6.946,2.9-12.167V48.164c0-5.221-.977-9.314-2.9-12.167a9.789,9.789,0,0,0-3.317-3.162,8.652,8.652,0,0,0-4.249-1.044,8.468,8.468,0,0,0-4.19,1.043A9.855,9.855,0,0,0,16.935,36c-1.926,2.853-2.9,6.946-2.9,12.167v1.665c0,5.221.977,9.314,2.9,12.167a9.855,9.855,0,0,0,3.3,3.163A8.468,8.468,0,0,0,24.425,66.2Z" transform="translate(-2.125 -21.55)" fill="#fff"/>
</svg>
