<svg xmlns="http://www.w3.org/2000/svg" width="110.773" height="54.4" viewBox="0 0 110.773 54.4">
  <path id="VS." d="M14.625-53.45a25.028,25.028,0,0,1,10.6,2.184A18.53,18.53,0,0,1,32.7-45.214a15.261,15.261,0,0,1,2.83,8.757l.008.508H23.552l-.049-.445A7.393,7.393,0,0,0,20.83-41.5a9.421,9.421,0,0,0-6.2-1.947,9.84,9.84,0,0,0-5.713,1.485,4.652,4.652,0,0,0-2.037,4.09,3.568,3.568,0,0,0,1.176,2.884,9.679,9.679,0,0,0,3.637,1.773c1.627.468,4.186,1.033,7.6,1.677a46.92,46.92,0,0,1,8.946,2.466,13.924,13.924,0,0,1,6.025,4.589,13.455,13.455,0,0,1,2.312,8.212A15.273,15.273,0,0,1,33.861-7.4a18.311,18.311,0,0,1-7.513,6.131A25.354,25.354,0,0,1,15.6.95,26.887,26.887,0,0,1,4.176-1.384,19.154,19.154,0,0,1-3.712-7.892a16.7,16.7,0,0,1-2.937-9.35l-.008-.514,12,.163.035.455a8.045,8.045,0,0,0,3.006,5.914A11.338,11.338,0,0,0,15.75-8.975a10.986,10.986,0,0,0,6.209-1.6A4.832,4.832,0,0,0,24.25-14.85a3.739,3.739,0,0,0-1.22-2.964,9.383,9.383,0,0,0-3.7-1.842c-1.654-.469-4.252-1.059-7.721-1.753A41.627,41.627,0,0,1,2.8-23.954a14.327,14.327,0,0,1-5.942-4.739A13.936,13.936,0,0,1-5.45-37.05a14.493,14.493,0,0,1,2.6-8.461,17.515,17.515,0,0,1,7.175-5.83A24.378,24.378,0,0,1,14.625-53.45Zm19.884,16.5a14.22,14.22,0,0,0-2.629-7.686A17.544,17.544,0,0,0,24.8-50.359,24.038,24.038,0,0,0,14.625-52.45a23.389,23.389,0,0,0-9.878,2.016,16.53,16.53,0,0,0-6.775,5.495A13.511,13.511,0,0,0-4.45-37.05a12.974,12.974,0,0,0,2.117,7.768A13.34,13.34,0,0,0,3.2-24.871a40.648,40.648,0,0,0,8.593,2.479H11.8c3.5.7,6.121,1.3,7.8,1.772a10.35,10.35,0,0,1,4.1,2.058A4.746,4.746,0,0,1,25.25-14.85a5.84,5.84,0,0,1-2.734,5.1A11.954,11.954,0,0,1,15.75-7.975a12.3,12.3,0,0,1-8-2.476,9.044,9.044,0,0,1-3.325-6.156l-10.055-.137A15.657,15.657,0,0,0-2.888-8.458,18.168,18.168,0,0,0,4.6-2.291,25.9,25.9,0,0,0,15.6-.05,24.364,24.364,0,0,0,25.927-2.179a17.326,17.326,0,0,0,7.112-5.794,14.291,14.291,0,0,0,2.536-8.3,12.494,12.494,0,0,0-2.113-7.613,12.938,12.938,0,0,0-5.6-4.261,45.943,45.943,0,0,0-8.753-2.409c-3.45-.65-6.04-1.222-7.7-1.7A10.643,10.643,0,0,1,7.4-34.234a4.569,4.569,0,0,1-1.524-3.641,5.659,5.659,0,0,1,2.463-4.91,10.8,10.8,0,0,1,6.287-1.665,10.385,10.385,0,0,1,6.845,2.178,8.386,8.386,0,0,1,2.968,5.322ZM-56.948-53h12.987l12.242,37.747L-19.186-53H-6.5L-24.616.5H-38.758Zm12.26,1H-55.552L-38.042-.5h12.708L-7.9-52H-18.464L-31.731-12.047ZM46.95-12.575a6.742,6.742,0,0,1,4.887,1.943,6.55,6.55,0,0,1,1.988,4.857A6.427,6.427,0,0,1,51.834-.952,6.814,6.814,0,0,1,46.95.95,6.779,6.779,0,0,1,42.025-.955a6.49,6.49,0,0,1-1.95-4.82,6.582,6.582,0,0,1,1.95-4.895A6.779,6.779,0,0,1,46.95-12.575Zm0,12.525a5.77,5.77,0,0,0,4.191-1.623,5.393,5.393,0,0,0,1.684-4.1,5.513,5.513,0,0,0-1.687-4.143,5.7,5.7,0,0,0-4.188-1.657,5.738,5.738,0,0,0-4.225,1.62,5.546,5.546,0,0,0-1.65,4.18,5.454,5.454,0,0,0,1.65,4.105A5.738,5.738,0,0,0,46.95-.05Z" transform="translate(56.948 53.45)" fill="#fff"/>
</svg>
