<svg xmlns="http://www.w3.org/2000/svg" width="91.464" height="55.263" viewBox="0 0 91.464 55.263">
  <path id="_02" data-name="02" d="M1.225,1.2V3.641A31.844,31.844,0,0,0,4.007,17.474a20.931,20.931,0,0,0,7.736,8.955,20.97,20.97,0,0,0,11.432,3.125,21.162,21.162,0,0,0,11.47-3.125,20.842,20.842,0,0,0,7.774-8.955A31.844,31.844,0,0,0,45.2,3.641V1.2a31.713,31.713,0,0,0-2.782-13.718,21.055,21.055,0,0,0-7.774-9.031,20.97,20.97,0,0,0-11.47-3.163A20.832,20.832,0,0,0,11.78-21.547a21.055,21.055,0,0,0-7.774,9.031A31.713,31.713,0,0,0,1.225,1.2Zm29.99-12.156q3.01,4.458,3.01,12.537V3.26q0,8.079-3.01,12.537a9.411,9.411,0,0,1-16,0Q12.2,11.339,12.2,3.26V1.583q0-8.079,3.01-12.537a9.206,9.206,0,0,1,7.964-4.458A9.269,9.269,0,0,1,31.215-10.954Zm57.2,16.691a17.738,17.738,0,0,0-8.46-4.382,15.183,15.183,0,0,0,7.583-4.115,10.644,10.644,0,0,0,2.858-7.7,12.343,12.343,0,0,0-5.144-10.365Q80.1-24.71,70.883-24.71q-8.764,0-13.985,4.42T51.6-8.172H62.347a7.417,7.417,0,0,1,2.591-5.792,9.551,9.551,0,0,1,6.4-2.134,9.047,9.047,0,0,1,5.792,1.753,5.876,5.876,0,0,1,2.21,4.878,6.369,6.369,0,0,1-2.4,5.221Q74.541-2.3,70.121-2.3H65.472V6.461h5.259q4.725,0,7.24,1.829a5.881,5.881,0,0,1,2.515,5.03,6.77,6.77,0,0,1-2.553,5.564,9.934,9.934,0,0,1-6.44,2.058A10.669,10.669,0,0,1,64.1,18.35a9.163,9.163,0,0,1-2.972-7.012H50.23q0,8.536,5.564,13.375t15.09,4.84a29.2,29.2,0,0,0,10.975-1.905,16.353,16.353,0,0,0,7.278-5.373,13.2,13.2,0,0,0,2.553-8.04A11.262,11.262,0,0,0,88.412,5.737Z" transform="translate(-0.725 25.21)" fill="none" stroke="#fff" stroke-width="1"/>
</svg>
