<svg xmlns="http://www.w3.org/2000/svg" width="46.356" height="33.638" viewBox="0 0 46.356 33.638">
  <g id="Group_396" data-name="Group 396" transform="translate(-8.055 -16.198)">
    <g id="Group_397" data-name="Group 397">
      <path id="Path_339" data-name="Path 339" d="M35.709,23.294h0a3.66,3.66,0,0,1,3.66-3.66H57a3.66,3.66,0,0,1,0,7.319H39.369a3.66,3.66,0,0,1-3.66-3.66" transform="translate(-6.249 -3.436)" fill="#fff"/>
      <path id="Path_340" data-name="Path 340" d="M35.709,39.224h0a3.66,3.66,0,0,1,3.66-3.66H57a3.66,3.66,0,0,1,0,7.319H39.369a3.66,3.66,0,0,1-3.66-3.66" transform="translate(-6.249 -6.224)" fill="#fff"/>
      <path id="Path_341" data-name="Path 341" d="M35.709,55.154h0a3.66,3.66,0,0,1,3.66-3.66H57a3.66,3.66,0,0,1,0,7.319H39.369a3.66,3.66,0,0,1-3.66-3.66" transform="translate(-6.249 -9.011)" fill="#fff"/>
      <line id="Line_8" data-name="Line 8" x1="0.248" y1="27.041" transform="translate(18.47 20.272)" fill="none" stroke="#fff" stroke-linecap="round" stroke-linejoin="round" stroke-width="5"/>
      <path id="Path_342" data-name="Path 342" d="M14.047,30.721,20.036,24.4a1.388,1.388,0,0,1,2.034,0L27.8,30.613" transform="translate(-2.458 -4.192)" fill="none" stroke="#fff" stroke-linecap="round" stroke-linejoin="round" stroke-width="5"/>
    </g>
  </g>
</svg>
