<svg xmlns="http://www.w3.org/2000/svg" xmlns:xlink="http://www.w3.org/1999/xlink" width="44.688" height="40.999" viewBox="0 0 44.688 40.999">
  <defs>
    <clipPath id="clip-path">
      <rect id="Rectangle_382" data-name="Rectangle 382" width="44.688" height="40.999" fill="none"/>
    </clipPath>
  </defs>
  <g id="Group_413" data-name="Group 413" transform="translate(0 0)">
    <g id="Group_412" data-name="Group 412" transform="translate(0 0)" clip-path="url(#clip-path)">
      <path id="Path_367" data-name="Path 367" d="M22.8,25.134,9.46,28.8A7.476,7.476,0,1,1,5.5,14.384l13.345-3.668Z" transform="translate(0 -2.181)" fill="#fff"/>
      <path id="Path_368" data-name="Path 368" d="M33.579,26.808l-16.36-1.313L13.256,11.077l13.39-9.49a1.541,1.541,0,0,1,2.378.849l6.165,22.427a1.542,1.542,0,0,1-1.61,1.945" transform="translate(-2.697 -0.265)" fill="#fff"/>
      <path id="Path_369" data-name="Path 369" d="M15.4,46.015l-2.7.743a2.188,2.188,0,0,1-2.689-1.529L5.851,30.1l5.135-1.411L16.672,42.74A2.187,2.187,0,0,1,15.4,46.015" transform="translate(-1.191 -5.838)" fill="#fff"/>
      <path id="Path_370" data-name="Path 370" d="M12.575,36.652a5.5,5.5,0,1,1,1.466-.2,5.53,5.53,0,0,1-1.466.2m.014-8.144a2.648,2.648,0,1,0,1.3.347,2.637,2.637,0,0,0-1.3-.347" transform="translate(-1.442 -5.22)" fill="#fff"/>
      <path id="Path_371" data-name="Path 371" d="M50.661,24.043c-.033,0-.065,0-.1,0l-7.056-.456a1.5,1.5,0,0,1-1.4-1.595,1.517,1.517,0,0,1,1.594-1.4l7.057.456a1.5,1.5,0,0,1-.1,3" transform="translate(-8.567 -4.189)" fill="#fff"/>
      <path id="Path_372" data-name="Path 372" d="M40.151,7.668A1.5,1.5,0,0,1,39.16,5.04L44.472.374a1.5,1.5,0,0,1,1.981,2.254L41.14,7.294a1.492,1.492,0,0,1-.989.374" transform="translate(-7.865 0)" fill="#fff"/>
      <path id="Path_373" data-name="Path 373" d="M45.087,14.374a1.5,1.5,0,0,1-.254-2.978L51.8,10.187a1.5,1.5,0,0,1,.513,2.956l-6.968,1.209a1.5,1.5,0,0,1-.258.022" transform="translate(-8.87 -2.068)" fill="#fff"/>
    </g>
  </g>
</svg>
