<?xml version="1.0" encoding="utf-8"?>
<!-- Generator: Adobe Illustrator 28.0.0, SVG Export Plug-In . SVG Version: 6.00 Build 0)  -->
<svg version="1.1" id="Layer_1" xmlns="http://www.w3.org/2000/svg" xmlns:xlink="http://www.w3.org/1999/xlink" x="0px" y="0px"
	 viewBox="0 0 29.6 38.5" style="enable-background:new 0 0 29.6 38.5;" xml:space="preserve">
<style type="text/css">
	.st0{fill:#0A0A0A;}
</style>
<g id="Icon_3">
	<path id="Path_433" class="st0" d="M2.5,38.5c-1.6,0-2.8-2-2.5-4.1c1.4-9.3,7.5-16.3,14.7-16.3s13.3,7,14.7,16.3
		c0.3,2.1-0.9,4.1-2.5,4.1H2.5z"/>
	<path id="Path_434" class="st0" d="M22.3,7.5c0,4.2-3.4,7.5-7.5,7.5s-7.5-3.4-7.5-7.5S10.6,0,14.8,0c0,0,0,0,0,0
		C18.9,0,22.3,3.4,22.3,7.5C22.3,7.5,22.3,7.5,22.3,7.5"/>
</g>
</svg>
