<?xml version="1.0" encoding="utf-8"?>
<!-- Generator: Adobe Illustrator 28.0.0, SVG Export Plug-In . SVG Version: 6.00 Build 0)  -->
<svg version="1.1" id="Layer_1" xmlns="http://www.w3.org/2000/svg" xmlns:xlink="http://www.w3.org/1999/xlink" x="0px" y="0px"
	 viewBox="0 0 42 42.4" style="enable-background:new 0 0 42 42.4;" xml:space="preserve">
<style type="text/css">
	.st0{fill:#0A0A0A;}
</style>
<g id="Icon_2">
	<path id="Path_435" class="st0" d="M5.7,42.4L5.7,42.4c-1.5,0-2.7-1.2-2.7-2.7l0,0V2.7C3,1.2,4.2,0,5.7,0s2.7,1.2,2.7,2.7v36.9
		C8.4,41.2,7.2,42.4,5.7,42.4C5.7,42.4,5.7,42.4,5.7,42.4"/>
	<path id="Path_436" class="st0" d="M21,42.4L21,42.4c-1.5,0-2.7-1.2-2.7-2.7l0,0V2.7C18.3,1.2,19.5,0,21,0s2.7,1.2,2.7,2.7v36.9
		C23.7,41.2,22.5,42.4,21,42.4L21,42.4"/>
	<path id="Path_437" class="st0" d="M36.3,42.4L36.3,42.4c-1.5,0-2.7-1.2-2.7-2.7l0,0V2.7c0-1.5,1.2-2.7,2.7-2.7S39,1.2,39,2.7v36.9
		C39,41.2,37.8,42.4,36.3,42.4L36.3,42.4"/>
	<path id="Path_438" class="st0" d="M11.2,9c0.9,3-0.8,6.2-3.8,7.1c-3,0.9-6.2-0.8-7.1-3.8C-0.7,9.3,1,6.2,4,5.2
		C7.1,4.3,10.2,6,11.2,9C11.2,9,11.2,9,11.2,9"/>
	<path id="Path_439" class="st0" d="M26.5,22.5c0.9,3-0.8,6.2-3.8,7.1c-3,0.9-6.2-0.8-7.1-3.8c-0.9-3,0.8-6.2,3.8-7.1
		C22.3,17.8,25.5,19.5,26.5,22.5C26.5,22.5,26.5,22.5,26.5,22.5"/>
	<path id="Path_440" class="st0" d="M41.7,13.9c0.9,3-0.8,6.2-3.8,7.1c-3,0.9-6.2-0.8-7.1-3.8c-0.9-3,0.8-6.2,3.8-7.1
		C37.6,9.2,40.8,10.9,41.7,13.9C41.7,13.9,41.7,13.9,41.7,13.9"/>
</g>
</svg>
