<?xml version="1.0" encoding="utf-8"?>
<!-- Generator: Adobe Illustrator 28.0.0, SVG Export Plug-In . SVG Version: 6.00 Build 0)  -->
<svg version="1.1" id="Layer_1" xmlns="http://www.w3.org/2000/svg" xmlns:xlink="http://www.w3.org/1999/xlink" x="0px" y="0px"
	 viewBox="0 0 47.6 47.6" style="enable-background:new 0 0 47.6 47.6;" xml:space="preserve">
<style type="text/css">
	.st0{fill:#0A0A0A;}
</style>
<g id="Icon_4">
	<path id="Path_424" class="st0" d="M37.2,24.1c0,7-5.7,12.7-12.7,12.7s-12.7-5.7-12.7-12.7c0-7,5.7-12.7,12.7-12.7
		C31.5,11.4,37.2,17.1,37.2,24.1C37.2,24.1,37.2,24.1,37.2,24.1"/>
	<path id="Path_425" class="st0" d="M25.4,1.6v6.1c-0.3,0-0.6,0-0.9,0c-0.8,0-1.5,0.1-2.3,0.2V1.6c0-0.9,0.7-1.6,1.5-1.6
		S25.3,0.6,25.4,1.6C25.4,1.5,25.4,1.6,25.4,1.6"/>
	<path id="Path_426" class="st0" d="M24.5,40.5c0.3,0,0.6,0,0.9,0V46c0,0.9-0.8,1.6-1.6,1.5c-0.8,0-1.5-0.7-1.5-1.5v-5.7
		C23,40.4,23.7,40.5,24.5,40.5"/>
	<path id="Path_427" class="st0" d="M8.2,22.2c-0.1,0.6-0.1,1.2-0.1,1.9c0,0.4,0,0.9,0.1,1.3H1.6c-0.9,0-1.6-0.7-1.6-1.5
		s0.7-1.6,1.5-1.6c0,0,0.1,0,0.1,0L8.2,22.2z"/>
	<path id="Path_428" class="st0" d="M47.6,23.8c0,0.9-0.7,1.6-1.6,1.6c0,0,0,0,0,0h-5.2c0-0.4,0.1-0.9,0.1-1.3c0-0.6,0-1.3-0.1-1.9
		H46C46.9,22.2,47.6,22.9,47.6,23.8C47.6,23.8,47.6,23.8,47.6,23.8"/>
	<path id="Path_429" class="st0" d="M13.6,36.2l-4.3,4.3c-0.3,0.3-0.7,0.5-1.1,0.5c-0.9,0-1.6-0.7-1.6-1.6c0-0.4,0.2-0.8,0.5-1.1
		l4.4-4.4C12,34.8,12.8,35.5,13.6,36.2"/>
	<path id="Path_430" class="st0" d="M40.6,9.2l-3.9,3.9c-0.7-0.8-1.5-1.5-2.3-2.2l4-4C39,6.3,40,6.3,40.6,7
		C41.2,7.6,41.2,8.6,40.6,9.2L40.6,9.2"/>
	<path id="Path_431" class="st0" d="M9.2,7l4.6,4.7c-0.8,0.7-1.5,1.5-2.2,2.3L7,9.2C6.3,8.6,6.3,7.6,7,7S8.6,6.3,9.2,7"/>
	<path id="Path_432" class="st0" d="M40.6,40.6c-0.3,0.3-0.7,0.5-1.1,0.5c-0.4,0-0.8-0.2-1.1-0.5l-3.7-3.7c0.8-0.7,1.6-1.4,2.3-2.2
		l3.7,3.7C41.2,39,41.2,40,40.6,40.6C40.6,40.6,40.6,40.6,40.6,40.6"/>
</g>
</svg>
