<?xml version="1.0" encoding="utf-8"?>
<!-- Generator: Adobe Illustrator 28.0.0, SVG Export Plug-In . SVG Version: 6.00 Build 0)  -->
<svg version="1.1" id="Layer_1" xmlns="http://www.w3.org/2000/svg" xmlns:xlink="http://www.w3.org/1999/xlink" x="0px" y="0px"
	 viewBox="0 0 39.4 45.8" style="enable-background:new 0 0 39.4 45.8;" xml:space="preserve">
<style type="text/css">
	.st0{fill:#0A0A0A;}
</style>
<g id="Icon_1">
	<path id="Path_441" class="st0" d="M37,10.9c-1.8,0-4.4-1.1-7.5-3c-3.6-2.3-6.8-4.9-9.8-8C13,6.6,6,10.9,2.4,10.9
		c-1.2-0.1-2.2,0.7-2.4,1.9c0,0.1,0,0.1,0,0.2l0.3,8.8C0.5,28.1,3.6,34,8.7,37.7l11,8.1l11-8.1c5.1-3.7,8.2-9.6,8.4-15.9l0.3-8.8
		c0-1.2-1-2.1-2.2-2.1C37.1,10.9,37,10.9,37,10.9 M29.9,15L19.1,33.1c-0.4,0.6-1,1-1.8,1.1c-0.1,0-0.1,0-0.2,0
		c-0.7,0-1.3-0.3-1.8-0.8l-5.7-6.6c-0.8-1-0.7-2.4,0.3-3.3c1-0.8,2.4-0.7,3.2,0.2l3.6,4.2L26,12.7c0.6-1.1,2.1-1.5,3.2-0.9
		C30.2,12.5,30.6,13.9,29.9,15C30,15,30,15,29.9,15"/>
</g>
</svg>
