<svg width="274" height="274" viewBox="0 0 274 274" fill="none" xmlns="http://www.w3.org/2000/svg">
<circle cx="137" cy="137" r="131" stroke="#E4E4E4" stroke-width="11"/>
<path d="M137 6C209.349 6 268 64.6507 268 137C268 209.349 209.349 268 137 268C92.7652 268 53.6511 246.075 29.9319 212.5" stroke="#1A0099" stroke-width="11" stroke-linecap="round"/>
<path d="M98.5168 137.85C97.5835 137.85 96.7501 138.033 96.0168 138.4C95.3168 138.733 94.7335 139.2 94.2668 139.8C93.8001 140.4 93.4501 141.1 93.2168 141.9C92.9835 142.667 92.8668 143.483 92.8668 144.35C92.8668 145.15 92.9835 145.95 93.2168 146.75C93.4835 147.517 93.8501 148.217 94.3168 148.85C94.8168 149.45 95.4168 149.933 96.1168 150.3C96.8168 150.667 97.6168 150.85 98.5168 150.85C99.3835 150.85 100.133 150.667 100.767 150.3C101.433 149.933 102 149.45 102.467 148.85C102.933 148.25 103.283 147.567 103.517 146.8C103.75 146.033 103.867 145.25 103.867 144.45C103.867 143.617 103.75 142.817 103.517 142.05C103.317 141.25 103 140.55 102.567 139.95C102.133 139.317 101.567 138.817 100.867 138.45C100.2 138.05 99.4168 137.85 98.5168 137.85ZM103.617 130C103.383 128.833 102.85 127.817 102.017 126.95C101.183 126.083 100.15 125.65 98.9168 125.65C97.6501 125.65 96.5835 126.033 95.7168 126.8C94.8835 127.533 94.2168 128.45 93.7168 129.55C93.2168 130.617 92.8501 131.767 92.6168 133C92.3835 134.233 92.2501 135.333 92.2168 136.3L92.3168 136.4C93.2835 135 94.4168 134 95.7168 133.4C97.0168 132.8 98.5168 132.5 100.217 132.5C101.717 132.5 103.183 132.833 104.617 133.5C106.05 134.133 107.267 135 108.267 136.1C109.2 137.167 109.883 138.383 110.317 139.75C110.75 141.117 110.967 142.5 110.967 143.9C110.967 145.7 110.667 147.383 110.067 148.95C109.5 150.483 108.667 151.833 107.567 153C106.5 154.133 105.217 155.033 103.717 155.7C102.217 156.333 100.55 156.65 98.7168 156.65C96.0835 156.65 93.9001 156.133 92.1668 155.1C90.4335 154.033 89.0501 152.65 88.0168 150.95C86.9835 149.25 86.2668 147.333 85.8668 145.2C85.4668 143.033 85.2668 140.833 85.2668 138.6C85.2668 136.433 85.5168 134.267 86.0168 132.1C86.5168 129.933 87.3168 127.983 88.4168 126.25C89.5168 124.483 90.9335 123.05 92.6668 121.95C94.4001 120.85 96.5168 120.3 99.0168 120.3C100.517 120.3 101.917 120.517 103.217 120.95C104.517 121.383 105.667 122.017 106.667 122.85C107.667 123.65 108.483 124.65 109.117 125.85C109.75 127.05 110.167 128.433 110.367 130H103.617Z" fill="black"/>
<path d="M137 126.85H122.55L121.15 134.8L121.25 134.9C122.217 133.933 123.25 133.25 124.35 132.85C125.45 132.417 126.7 132.2 128.1 132.2C129.833 132.2 131.367 132.517 132.7 133.15C134.033 133.783 135.15 134.633 136.05 135.7C136.983 136.767 137.683 138.033 138.15 139.5C138.65 140.933 138.9 142.467 138.9 144.1C138.9 145.9 138.55 147.583 137.85 149.15C137.15 150.683 136.2 152.017 135 153.15C133.833 154.283 132.467 155.167 130.9 155.8C129.333 156.4 127.667 156.683 125.9 156.65C124.2 156.65 122.567 156.433 121 156C119.467 155.533 118.1 154.833 116.9 153.9C115.7 152.967 114.733 151.817 114 150.45C113.3 149.05 112.933 147.433 112.9 145.6H120C120.167 147.2 120.767 148.483 121.8 149.45C122.833 150.383 124.15 150.85 125.75 150.85C126.683 150.85 127.517 150.667 128.25 150.3C129.017 149.9 129.65 149.4 130.15 148.8C130.683 148.167 131.083 147.45 131.35 146.65C131.65 145.817 131.8 144.967 131.8 144.1C131.8 143.2 131.667 142.35 131.4 141.55C131.133 140.75 130.733 140.05 130.2 139.45C129.667 138.85 129.033 138.383 128.3 138.05C127.567 137.717 126.717 137.55 125.75 137.55C124.483 137.55 123.45 137.783 122.65 138.25C121.85 138.683 121.1 139.383 120.4 140.35H114L117.45 121H137V126.85Z" fill="black"/>
<path d="M174.433 146.9C174.433 147.433 174.45 148.05 174.483 148.75C174.517 149.45 174.633 150.117 174.833 150.75C175.033 151.35 175.35 151.867 175.783 152.3C176.217 152.733 176.833 152.95 177.633 152.95C178.4 152.95 179 152.733 179.433 152.3C179.9 151.867 180.233 151.35 180.433 150.75C180.667 150.117 180.8 149.467 180.833 148.8C180.9 148.1 180.933 147.483 180.933 146.95C180.933 146.45 180.9 145.867 180.833 145.2C180.8 144.5 180.683 143.85 180.483 143.25C180.283 142.617 179.967 142.083 179.533 141.65C179.133 141.183 178.567 140.95 177.833 140.95C177.033 140.95 176.4 141.15 175.933 141.55C175.5 141.95 175.167 142.45 174.933 143.05C174.7 143.65 174.55 144.3 174.483 145C174.45 145.7 174.433 146.333 174.433 146.9ZM169.333 146.85C169.333 145.483 169.5 144.217 169.833 143.05C170.167 141.883 170.683 140.867 171.383 140C172.083 139.133 172.967 138.45 174.033 137.95C175.1 137.45 176.367 137.2 177.833 137.2C179.4 137.2 180.7 137.467 181.733 138C182.767 138.5 183.6 139.2 184.233 140.1C184.9 140.967 185.367 142 185.633 143.2C185.9 144.4 186.033 145.683 186.033 147.05C186.033 148.417 185.867 149.683 185.533 150.85C185.2 152.017 184.683 153.033 183.983 153.9C183.317 154.767 182.45 155.45 181.383 155.95C180.317 156.417 179.05 156.65 177.583 156.65C176.05 156.65 174.75 156.4 173.683 155.9C172.65 155.4 171.8 154.717 171.133 153.85C170.5 152.95 170.033 151.9 169.733 150.7C169.467 149.5 169.333 148.217 169.333 146.85ZM173.183 119.9H177.433L156.833 157.05H152.483L173.183 119.9ZM148.633 130.3C148.633 130.833 148.65 131.433 148.683 132.1C148.717 132.767 148.833 133.4 149.033 134C149.233 134.567 149.55 135.05 149.983 135.45C150.417 135.85 151.033 136.05 151.833 136.05C152.6 136.05 153.2 135.85 153.633 135.45C154.1 135.05 154.433 134.567 154.633 134C154.867 133.4 155 132.783 155.033 132.15C155.1 131.483 155.133 130.883 155.133 130.35C155.133 129.85 155.1 129.25 155.033 128.55C155 127.817 154.883 127.117 154.683 126.45C154.483 125.783 154.167 125.217 153.733 124.75C153.333 124.283 152.767 124.05 152.033 124.05C151.233 124.05 150.6 124.267 150.133 124.7C149.7 125.133 149.367 125.667 149.133 126.3C148.9 126.933 148.75 127.617 148.683 128.35C148.65 129.083 148.633 129.733 148.633 130.3ZM143.533 130.2C143.533 128.833 143.7 127.55 144.033 126.35C144.367 125.15 144.883 124.1 145.583 123.2C146.283 122.3 147.167 121.6 148.233 121.1C149.3 120.567 150.567 120.3 152.033 120.3C153.6 120.3 154.9 120.567 155.933 121.1C156.967 121.633 157.8 122.367 158.433 123.3C159.1 124.2 159.567 125.267 159.833 126.5C160.1 127.733 160.233 129.033 160.233 130.4C160.233 131.767 160.067 133.033 159.733 134.2C159.4 135.333 158.883 136.317 158.183 137.15C157.517 137.983 156.65 138.633 155.583 139.1C154.517 139.567 153.25 139.8 151.783 139.8C150.25 139.8 148.95 139.567 147.883 139.1C146.85 138.6 146 137.933 145.333 137.1C144.7 136.233 144.233 135.217 143.933 134.05C143.667 132.85 143.533 131.567 143.533 130.2Z" fill="black"/>
</svg>
