<svg width="274" height="274" viewBox="0 0 274 274" fill="none" xmlns="http://www.w3.org/2000/svg">
<circle cx="137" cy="137" r="131" stroke="#E4E4E4" stroke-width="11"/>
<path d="M137 6C165.555 6 191.976 15.1364 213.5 30.6454" stroke="#FA9527" stroke-width="11" stroke-linecap="round"/>
<path d="M103.817 156H96.7168V133.3H87.9168V127.95C89.1501 127.983 90.3335 127.9 91.4668 127.7C92.6335 127.467 93.6668 127.083 94.5668 126.55C95.5001 125.983 96.2835 125.25 96.9168 124.35C97.5501 123.45 97.9668 122.333 98.1668 121H103.817V156ZM120.15 138.35C120.15 139.35 120.183 140.567 120.25 142C120.317 143.4 120.517 144.767 120.85 146.1C121.217 147.4 121.783 148.517 122.55 149.45C123.317 150.383 124.417 150.85 125.85 150.85C127.317 150.85 128.433 150.383 129.2 149.45C130 148.517 130.567 147.4 130.9 146.1C131.267 144.767 131.483 143.4 131.55 142C131.617 140.567 131.65 139.35 131.65 138.35C131.65 137.75 131.633 137.033 131.6 136.2C131.6 135.333 131.533 134.45 131.4 133.55C131.3 132.65 131.133 131.767 130.9 130.9C130.7 130 130.383 129.2 129.95 128.5C129.517 127.8 128.967 127.233 128.3 126.8C127.633 126.367 126.817 126.15 125.85 126.15C124.883 126.15 124.067 126.367 123.4 126.8C122.767 127.233 122.233 127.8 121.8 128.5C121.4 129.2 121.083 130 120.85 130.9C120.617 131.767 120.45 132.65 120.35 133.55C120.25 134.45 120.183 135.333 120.15 136.2C120.15 137.033 120.15 137.75 120.15 138.35ZM113.05 138.35C113.05 134.95 113.383 132.1 114.05 129.8C114.75 127.467 115.683 125.6 116.85 124.2C118.017 122.8 119.367 121.8 120.9 121.2C122.467 120.6 124.117 120.3 125.85 120.3C127.617 120.3 129.267 120.6 130.8 121.2C132.367 121.8 133.733 122.8 134.9 124.2C136.1 125.6 137.033 127.467 137.7 129.8C138.4 132.1 138.75 134.95 138.75 138.35C138.75 141.85 138.4 144.783 137.7 147.15C137.033 149.483 136.1 151.35 134.9 152.75C133.733 154.15 132.367 155.15 130.8 155.75C129.267 156.35 127.617 156.65 125.85 156.65C124.117 156.65 122.467 156.35 120.9 155.75C119.367 155.15 118.017 154.15 116.85 152.75C115.683 151.35 114.75 149.483 114.05 147.15C113.383 144.783 113.05 141.85 113.05 138.35ZM174.433 146.9C174.433 147.433 174.45 148.05 174.483 148.75C174.517 149.45 174.633 150.117 174.833 150.75C175.033 151.35 175.35 151.867 175.783 152.3C176.217 152.733 176.833 152.95 177.633 152.95C178.4 152.95 179 152.733 179.433 152.3C179.9 151.867 180.233 151.35 180.433 150.75C180.667 150.117 180.8 149.467 180.833 148.8C180.9 148.1 180.933 147.483 180.933 146.95C180.933 146.45 180.9 145.867 180.833 145.2C180.8 144.5 180.683 143.85 180.483 143.25C180.283 142.617 179.967 142.083 179.533 141.65C179.133 141.183 178.567 140.95 177.833 140.95C177.033 140.95 176.4 141.15 175.933 141.55C175.5 141.95 175.167 142.45 174.933 143.05C174.7 143.65 174.55 144.3 174.483 145C174.45 145.7 174.433 146.333 174.433 146.9ZM169.333 146.85C169.333 145.483 169.5 144.217 169.833 143.05C170.167 141.883 170.683 140.867 171.383 140C172.083 139.133 172.967 138.45 174.033 137.95C175.1 137.45 176.367 137.2 177.833 137.2C179.4 137.2 180.7 137.467 181.733 138C182.767 138.5 183.6 139.2 184.233 140.1C184.9 140.967 185.367 142 185.633 143.2C185.9 144.4 186.033 145.683 186.033 147.05C186.033 148.417 185.867 149.683 185.533 150.85C185.2 152.017 184.683 153.033 183.983 153.9C183.317 154.767 182.45 155.45 181.383 155.95C180.317 156.417 179.05 156.65 177.583 156.65C176.05 156.65 174.75 156.4 173.683 155.9C172.65 155.4 171.8 154.717 171.133 153.85C170.5 152.95 170.033 151.9 169.733 150.7C169.467 149.5 169.333 148.217 169.333 146.85ZM173.183 119.9H177.433L156.833 157.05H152.483L173.183 119.9ZM148.633 130.3C148.633 130.833 148.65 131.433 148.683 132.1C148.717 132.767 148.833 133.4 149.033 134C149.233 134.567 149.55 135.05 149.983 135.45C150.417 135.85 151.033 136.05 151.833 136.05C152.6 136.05 153.2 135.85 153.633 135.45C154.1 135.05 154.433 134.567 154.633 134C154.867 133.4 155 132.783 155.033 132.15C155.1 131.483 155.133 130.883 155.133 130.35C155.133 129.85 155.1 129.25 155.033 128.55C155 127.817 154.883 127.117 154.683 126.45C154.483 125.783 154.167 125.217 153.733 124.75C153.333 124.283 152.767 124.05 152.033 124.05C151.233 124.05 150.6 124.267 150.133 124.7C149.7 125.133 149.367 125.667 149.133 126.3C148.9 126.933 148.75 127.617 148.683 128.35C148.65 129.083 148.633 129.733 148.633 130.3ZM143.533 130.2C143.533 128.833 143.7 127.55 144.033 126.35C144.367 125.15 144.883 124.1 145.583 123.2C146.283 122.3 147.167 121.6 148.233 121.1C149.3 120.567 150.567 120.3 152.033 120.3C153.6 120.3 154.9 120.567 155.933 121.1C156.967 121.633 157.8 122.367 158.433 123.3C159.1 124.2 159.567 125.267 159.833 126.5C160.1 127.733 160.233 129.033 160.233 130.4C160.233 131.767 160.067 133.033 159.733 134.2C159.4 135.333 158.883 136.317 158.183 137.15C157.517 137.983 156.65 138.633 155.583 139.1C154.517 139.567 153.25 139.8 151.783 139.8C150.25 139.8 148.95 139.567 147.883 139.1C146.85 138.6 146 137.933 145.333 137.1C144.7 136.233 144.233 135.217 143.933 134.05C143.667 132.85 143.533 131.567 143.533 130.2Z" fill="black"/>
</svg>
