<svg width="512" height="512" viewBox="0 0 512 512" fill="none" xmlns="http://www.w3.org/2000/svg">
<path d="M320.874 396.417L304.591 393.487L262.203 441.906C261.404 442.857 260.405 443.621 259.277 444.142C258.149 444.663 256.92 444.929 255.678 444.921C254.436 444.913 253.21 444.631 252.09 444.095C250.969 443.558 249.98 442.782 249.194 441.819L207.926 393.315L190.695 396.417C182.597 397.8 175.005 401.292 168.683 406.539C162.362 411.787 157.533 418.606 154.683 426.312L142.88 467.838H175.877L181.908 443.198C182.469 440.984 183.883 439.081 185.841 437.905C187.799 436.729 190.143 436.376 192.361 436.922C194.58 437.468 196.492 438.869 197.681 440.819C198.869 442.77 199.239 445.112 198.707 447.333L193.625 467.838H317.772L312.689 447.333C312.188 445.122 312.575 442.803 313.766 440.874C314.958 438.946 316.858 437.561 319.06 437.02C321.261 436.478 323.587 436.822 325.537 437.977C327.488 439.133 328.907 441.007 329.489 443.198L335.52 467.838H368.517L356.628 425.709C353.72 418.145 348.896 411.467 342.627 406.331C336.359 401.196 328.862 397.779 320.874 396.417Z" fill="white"/>
<path d="M271.767 373.241C261.308 376.343 250.175 376.343 239.717 373.241C239.349 376.837 237.985 380.258 235.778 383.119C233.571 385.981 230.608 388.169 227.225 389.438L255.828 423.124L285.034 389.696C281.492 388.491 278.365 386.304 276.016 383.391C273.667 380.478 272.194 376.959 271.767 373.241Z" fill="white"/>
<path d="M291.151 373.499L300.8 375.309C311.719 374 322.876 372.093 333.969 369.623L314.24 263.395C301.61 199.57 209.143 199.77 196.554 263.396L176.825 369.623C187.422 371.949 198.449 373.844 209.822 375.309L220.677 373.499C221.227 373.403 221.725 373.118 222.087 372.693C222.448 372.269 222.651 371.731 222.659 371.174L222.831 364.712C215.916 359.701 210.288 353.122 206.409 345.513C202.53 337.905 200.511 329.486 200.517 320.946V293.204C200.515 291.28 200.893 289.375 201.629 287.597C202.364 285.82 203.443 284.205 204.803 282.844C206.164 281.484 207.779 280.405 209.557 279.67C211.334 278.934 213.24 278.557 215.163 278.558H233.772L245.317 258.829C246.093 257.56 247.182 256.511 248.479 255.784C249.776 255.056 251.239 254.674 252.726 254.674C254.214 254.674 255.676 255.056 256.974 255.784C258.271 256.511 259.36 257.56 260.135 258.829L272.111 279.333L296.32 278.73C298.271 278.69 300.21 279.038 302.025 279.756C303.839 280.473 305.493 281.545 306.888 282.909C308.284 284.272 309.394 285.9 310.153 287.698C310.912 289.495 311.306 291.426 311.311 293.377V320.946C311.309 329.612 309.236 338.153 305.265 345.856C301.293 353.559 295.539 360.201 288.48 365.229L288.825 370.657C288.777 371.338 288.992 372.011 289.424 372.54C289.856 373.068 290.474 373.411 291.151 373.499Z" fill="white"/>
<path d="M32 116.158V459.223C32.0067 461.506 32.9166 463.693 34.5308 465.307C36.1451 466.922 38.3325 467.831 40.6154 467.838H125.046L138.314 421.057C143.791 405.749 154.877 393.093 169.329 385.648L164.935 384.614C162.743 384.146 160.82 382.837 159.58 380.969C158.34 379.101 157.881 376.822 158.301 374.62L179.581 260.208C189.366 203.755 260.896 178.474 304.677 215.581C318.516 226.856 327.916 242.665 331.212 260.208L352.492 374.62C352.882 376.819 352.411 379.084 351.176 380.945C349.94 382.806 348.036 384.12 345.858 384.614L341.895 385.475C356.329 392.76 367.449 405.267 372.997 420.453L386.35 467.838H471.385C473.668 467.831 475.855 466.922 477.469 465.307C479.083 463.693 479.993 461.506 480 459.223V116.158H32ZM94.0309 331.715C94.2485 332.967 94.1906 334.251 93.8611 335.478C93.5317 336.705 92.9386 337.845 92.1232 338.819C91.3079 339.794 90.2899 340.579 89.1402 341.119C87.9904 341.66 86.7367 341.943 85.4663 341.949C84.1958 341.956 82.9393 341.685 81.7843 341.156C80.6292 340.627 79.6034 339.852 78.7784 338.886C77.9534 337.92 77.3489 336.786 77.0073 335.562C76.6656 334.338 76.5949 333.055 76.8 331.801C65.7747 328.995 52.0903 305.305 69.2182 301.647C71.498 301.51 73.7406 302.272 75.4644 303.77C77.1881 305.268 78.2554 307.383 78.437 309.66C78.5516 311.012 79.0572 312.302 79.8923 313.371C80.7273 314.441 81.8556 315.244 83.1395 315.684C84.4235 316.123 85.8075 316.179 87.1228 315.846C88.4382 315.512 89.6279 314.802 90.5469 313.804C91.466 312.805 92.0745 311.561 92.2984 310.223C92.5223 308.884 92.3518 307.51 91.8078 306.266C91.2637 305.023 90.3696 303.965 89.2345 303.222C88.0995 302.478 86.7725 302.081 85.4154 302.078C79.7834 302.018 74.3474 300.002 70.0389 296.374C65.7304 292.746 62.8175 287.733 61.7993 282.193C60.7811 276.654 61.7209 270.933 64.4577 266.01C67.1946 261.087 71.5581 257.269 76.8007 255.21L76.8 253.574C76.8263 252.381 77.0981 251.207 77.5984 250.125C78.0987 249.042 78.8168 248.074 79.7078 247.282C80.5989 246.489 81.6438 245.889 82.7772 245.518C83.9107 245.147 85.1084 245.014 86.2957 245.127C87.4829 245.24 88.6341 245.596 89.6775 246.174C90.7208 246.751 91.6339 247.538 92.3597 248.484C93.0855 249.43 93.6085 250.516 93.896 251.673C94.1834 252.831 94.2292 254.035 94.0305 255.211C104.754 257.96 118.392 280.714 101.87 284.762C100.743 284.888 99.6025 284.789 98.5139 284.471C97.4253 284.153 96.4108 283.622 95.5291 282.909C94.6475 282.195 93.9163 281.314 93.378 280.315C92.8398 279.317 92.5051 278.222 92.3935 277.093C92.1842 275.387 91.36 273.816 90.0754 272.674C88.7907 271.533 87.1339 270.898 85.4151 270.891C83.5864 270.924 81.8438 271.674 80.5623 272.979C79.2808 274.284 78.5628 276.04 78.5628 277.869C78.5628 279.698 79.2808 281.454 80.5623 282.759C81.8438 284.064 83.5864 284.814 85.4151 284.847C91.0448 284.912 96.4772 286.93 100.783 290.558C105.088 294.186 107.999 299.197 109.017 304.734C110.034 310.272 109.096 315.991 106.363 320.912C103.629 325.834 99.2697 329.653 94.0309 331.715ZM193.538 186.89L162.954 217.389C162.167 218.206 161.224 218.856 160.18 219.3C159.137 219.744 158.014 219.973 156.88 219.973C155.746 219.973 154.623 219.744 153.579 219.3C152.536 218.856 151.592 218.206 150.806 217.389L120.221 186.89C115.277 181.94 112.437 175.271 112.294 168.277C112.15 161.282 114.715 154.502 119.452 149.354C124.189 144.205 130.732 141.086 137.715 140.647C144.697 140.209 151.579 142.486 156.923 147.001C162.279 142.591 169.123 140.402 176.044 140.885C182.966 141.368 189.438 144.486 194.13 149.597C198.822 154.709 201.376 161.424 201.266 168.362C201.156 175.299 198.39 181.931 193.538 186.89ZM380.147 226.177C380.363 227.357 380.331 228.569 380.055 229.737C379.778 230.904 379.263 232.002 378.541 232.96C377.82 233.919 376.907 234.717 375.862 235.306C374.816 235.894 373.66 236.259 372.466 236.379C371.272 236.498 370.067 236.369 368.925 235.999C367.784 235.629 366.731 235.027 365.834 234.231C364.937 233.434 364.214 232.46 363.712 231.371C363.21 230.281 362.939 229.099 362.916 227.9V226.177C351.796 223.441 338.239 199.777 355.335 196.108C357.615 195.971 359.858 196.733 361.581 198.232C363.305 199.73 364.372 201.845 364.553 204.121C364.652 205.478 365.145 206.776 365.97 207.856C366.796 208.937 367.919 209.753 369.202 210.205C370.485 210.656 371.872 210.724 373.192 210.399C374.513 210.074 375.71 209.371 376.637 208.375C377.564 207.38 378.18 206.136 378.41 204.795C378.64 203.455 378.473 202.076 377.931 200.829C377.389 199.582 376.495 198.52 375.359 197.773C374.222 197.026 372.892 196.628 371.532 196.626C365.89 196.584 360.438 194.577 356.116 190.95C351.794 187.323 348.872 182.302 347.851 176.753C346.831 171.204 347.778 165.472 350.527 160.545C353.277 155.618 357.658 151.804 362.917 149.758L362.916 148.035C362.94 146.84 363.209 145.664 363.708 144.578C364.207 143.492 364.925 142.521 365.816 141.726C366.708 140.931 367.754 140.328 368.89 139.956C370.025 139.584 371.225 139.45 372.415 139.563C373.604 139.676 374.757 140.033 375.802 140.613C376.847 141.192 377.761 141.981 378.487 142.93C379.213 143.879 379.735 144.968 380.021 146.128C380.306 147.288 380.349 148.495 380.147 149.672C390.909 152.447 404.522 175.204 387.901 179.223C385.64 179.471 383.373 178.811 381.597 177.39C379.82 175.969 378.68 173.902 378.425 171.641C378.267 169.922 377.472 168.324 376.197 167.161C374.922 165.997 373.258 165.352 371.532 165.352C369.687 165.379 367.927 166.13 366.632 167.444C365.336 168.758 364.61 170.529 364.61 172.374C364.61 174.219 365.337 175.99 366.632 177.304C367.927 178.617 369.687 179.369 371.532 179.395C377.15 179.461 382.57 181.477 386.866 185.097C391.162 188.717 394.067 193.717 395.085 199.242C396.102 204.767 395.169 210.474 392.444 215.387C389.72 220.3 385.373 224.114 380.147 226.177ZM451.741 323.961L414.781 344.208C412.33 345.515 409.581 346.162 406.804 346.083C404.027 346.005 401.318 345.205 398.944 343.762C396.57 342.318 394.614 340.281 393.267 337.852C391.92 335.422 391.229 332.683 391.262 329.905L392.209 287.777C392.3 285.003 393.114 282.3 394.569 279.937C396.024 277.573 398.071 275.629 400.507 274.298C402.943 272.967 405.684 272.295 408.459 272.347C411.234 272.399 413.948 273.174 416.332 274.596L452.344 296.478C454.708 297.938 456.649 299.989 457.976 302.43C459.302 304.87 459.968 307.615 459.907 310.392C459.846 313.169 459.06 315.882 457.628 318.262C456.196 320.642 454.167 322.607 451.741 323.961Z" fill="white"/>
<path d="M408.576 328.008L441.4 310.008L409.352 290.536L408.576 328.008Z" fill="white"/>
<path d="M167.348 160.786L162.954 165.18C161.305 166.716 159.134 167.57 156.88 167.57C154.626 167.57 152.456 166.716 150.806 165.18C147.911 162.265 143.909 157.41 139.434 157.857C137.498 157.881 135.612 158.472 134.009 159.557C132.406 160.641 131.156 162.172 130.413 163.96C129.671 165.747 129.468 167.713 129.831 169.614C130.195 171.516 131.107 173.269 132.456 174.657L156.923 199.124L181.305 174.657C183.096 172.796 184.083 170.306 184.055 167.724C184.026 165.142 182.983 162.674 181.152 160.854C179.32 159.034 176.846 158.006 174.264 157.993C171.682 157.981 169.198 158.984 167.348 160.786Z" fill="white"/>
<path d="M294.08 296.047L271.077 296.65C268.444 296.687 265.847 296.03 263.548 294.745C261.249 293.459 259.329 291.591 257.982 289.328L252.726 280.281L247.988 288.466C241.906 299.163 227.824 295.026 217.748 295.789V320.946C217.766 327.754 219.646 334.427 223.184 340.243C226.723 346.059 231.785 350.797 237.822 353.943C261.823 367.429 294.93 348.779 294.08 320.945L294.08 296.047Z" fill="white"/>
<path d="M479.871 68.1477C479.852 61.7919 477.319 55.7019 472.825 51.2077C468.331 46.7136 462.241 44.1805 455.885 44.1619H56.1152C49.7594 44.1805 43.6693 46.7135 39.1751 51.2077C34.6809 55.7019 32.1479 61.792 32.1294 68.1477V99.1702H479.871V68.1477ZM83.2196 79.6614C81.1172 79.634 79.1102 78.7795 77.6332 77.283C76.1561 75.7865 75.328 73.7684 75.3281 71.6658C75.3281 69.5632 76.1564 67.5452 77.6335 66.0488C79.1106 64.5524 81.1177 63.698 83.2201 63.6706C85.3226 63.6981 87.3296 64.5526 88.8066 66.0491C90.2836 67.5456 91.1117 69.5637 91.1117 71.6663C91.1116 73.7689 90.2834 75.7869 88.8063 77.2833C87.3292 78.7797 85.3221 79.6341 83.2196 79.6614ZM129.513 79.6614C127.414 79.6296 125.411 78.7732 123.937 77.2773C122.464 75.7813 121.638 73.7658 121.638 71.666C121.638 69.5663 122.464 67.5508 123.937 66.0548C125.411 64.5589 127.414 63.7025 129.513 63.6706C131.613 63.7025 133.615 64.5589 135.089 66.0548C136.562 67.5508 137.388 69.5663 137.388 71.666C137.388 73.7658 136.562 75.7813 135.089 77.2773C133.615 78.7732 131.613 79.6296 129.513 79.6614ZM175.806 79.6614C173.707 79.6295 171.704 78.7731 170.23 77.2771C168.757 75.781 167.931 73.7655 167.931 71.6658C167.931 69.566 168.757 67.5506 170.231 66.0546C171.704 64.5587 173.707 63.7024 175.807 63.6706C177.906 63.7026 179.909 64.559 181.382 66.055C182.856 67.5511 183.681 69.5666 183.681 71.6663C183.681 73.7661 182.855 75.7815 181.382 77.2775C179.908 78.7734 177.906 79.6297 175.806 79.6614Z" fill="white"/>
</svg>
