<svg width="512" height="512" viewBox="0 0 512 512" fill="none" xmlns="http://www.w3.org/2000/svg">
<path d="M428.491 171.001C361.311 79.2515 214.348 146.103 239.773 257.163C242.262 267.357 241.042 278.104 236.331 287.481L218.011 323.001C217.885 323.254 217.831 323.537 217.854 323.819C217.876 324.101 217.975 324.371 218.139 324.601C218.304 324.831 218.527 325.012 218.787 325.125C219.046 325.238 219.331 325.278 219.611 325.241L259.051 318.601C269.436 317.001 280.053 319.096 289.051 324.521C386.597 382.818 495.527 263.069 428.491 171.001ZM311.451 190.521H377.051C379.152 190.552 381.157 191.409 382.632 192.906C384.107 194.403 384.933 196.42 384.933 198.521C384.933 200.623 384.107 202.64 382.632 204.137C381.157 205.633 379.152 206.49 377.051 206.521H311.451C309.35 206.49 307.346 205.633 305.871 204.137C304.396 202.64 303.569 200.623 303.569 198.521C303.569 196.42 304.396 194.403 305.871 192.906C307.345 191.409 309.35 190.552 311.451 190.521ZM406.251 276.361H282.251C280.15 276.33 278.146 275.473 276.671 273.977C275.196 272.48 274.369 270.463 274.369 268.361C274.369 266.26 275.196 264.243 276.671 262.746C278.146 261.249 280.15 260.392 282.251 260.361H406.251C408.353 260.391 410.359 261.247 411.835 262.744C413.311 264.241 414.139 266.259 414.139 268.361C414.139 270.464 413.311 272.481 411.835 273.978C410.359 275.475 408.353 276.331 406.251 276.361ZM406.251 241.481H282.251C280.149 241.451 278.143 240.595 276.667 239.098C275.191 237.601 274.364 235.583 274.364 233.481C274.364 231.379 275.191 229.361 276.667 227.864C278.143 226.367 280.149 225.511 282.251 225.481H406.251C408.354 225.51 410.361 226.366 411.837 227.863C413.314 229.36 414.142 231.378 414.142 233.481C414.142 235.584 413.314 237.602 411.837 239.099C410.36 240.597 408.354 241.452 406.251 241.481Z" fill="white"/>
<path d="M335.691 355.081C316.312 353.978 297.486 348.215 280.811 338.281C275.101 334.756 268.327 333.368 261.691 334.361L222.331 341.001C219.112 341.571 215.797 341.219 212.768 339.988C209.739 338.757 207.12 336.695 205.211 334.041C203.286 331.41 202.132 328.295 201.878 325.046C201.624 321.796 202.279 318.54 203.771 315.641L222.091 280.201C225.077 274.175 225.814 267.282 224.171 260.761C219.948 242.296 220.084 223.101 224.568 204.697C229.051 186.293 237.758 169.187 250 154.732C262.242 140.278 277.682 128.873 295.097 121.421C312.511 113.97 331.422 110.676 350.331 111.801V72.0408C350.307 66.5407 349.157 61.1036 346.952 56.0651C344.746 51.0265 341.531 46.4934 337.506 42.7453C333.48 38.9973 328.729 36.1137 323.546 34.2727C318.364 32.4316 312.858 31.672 307.371 32.0408C304.149 40.3099 297.648 56.9578 294.411 65.2404C292.012 73.5981 286.962 80.9498 280.021 86.1876C273.081 91.4255 264.626 94.2657 255.931 94.2804H157.211C148.521 94.2423 140.078 91.3931 133.142 86.1588C126.206 80.9244 121.15 73.586 118.731 65.2404C115.59 57.0921 108.918 40.2004 105.771 32.041C100.284 31.6788 94.7818 32.4431 89.6018 34.2866C84.4218 36.1301 79.6737 39.0139 75.6497 42.7607C71.6257 46.5075 68.4108 51.0379 66.2028 56.0734C63.9948 61.1088 62.8404 66.5428 62.8105 72.041V440.041C62.828 450.644 67.0479 460.808 74.5455 468.306C82.0432 475.804 92.2072 480.024 102.811 480.041H310.331C320.938 480.037 331.11 475.822 338.611 468.321C346.111 460.82 350.327 450.648 350.331 440.041V355.081C345.456 355.401 340.566 355.401 335.691 355.081ZM249.051 438.281H164.171C162.07 438.25 160.065 437.393 158.59 435.897C157.115 434.4 156.289 432.383 156.289 430.281C156.289 428.18 157.115 426.163 158.59 424.666C160.065 423.169 162.07 422.312 164.171 422.281H249.051C251.151 422.314 253.153 423.172 254.627 424.668C256.1 426.165 256.925 428.181 256.925 430.281C256.926 432.381 256.1 434.397 254.627 435.894C253.154 437.39 251.151 438.248 249.051 438.281Z" fill="white"/>
<path d="M133.771 59.7209C135.074 64.9722 138.082 69.643 142.323 73.0016C146.565 76.3603 151.801 78.217 157.211 78.2809H255.931C261.208 78.2656 266.335 76.5203 270.525 73.3125C274.716 70.1046 277.739 65.6112 279.131 60.5209C281.841 53.4242 287.362 39.1831 290.171 32.0409H122.891C125.703 38.8111 131.085 53.0303 133.771 59.7209Z" fill="white"/>
</svg>
