<svg width="512" height="512" viewBox="0 0 512 512" fill="none" xmlns="http://www.w3.org/2000/svg">
<path d="M74.0801 255.6H74.7201C74.7324 253.681 74.8014 254.501 74.0801 255.6Z" fill="white"/>
<path d="M138.8 379.523V255.603H74.7202V379.523C74.7202 379.523 128.557 379.526 138.8 379.523Z" fill="white"/>
<path d="M141.76 395.523C139.605 395.528 73.7858 395.519 71.6802 395.523C65.3165 395.528 59.2149 398.058 54.7151 402.558C50.2153 407.057 47.6851 413.159 47.6802 419.523V444.563C47.6863 446.683 48.5311 448.714 50.0301 450.213C51.5291 451.712 53.5603 452.557 55.6802 452.563H157.76C159.88 452.557 161.911 451.712 163.41 450.213C164.909 448.714 165.754 446.683 165.76 444.563V419.523C165.755 413.159 163.225 407.057 158.725 402.558C154.225 398.058 148.123 395.528 141.76 395.523Z" fill="white"/>
<path d="M449.36 395.523C447.59 395.532 381.05 395.516 379.28 395.523C372.916 395.528 366.815 398.058 362.315 402.558C357.815 407.058 355.285 413.159 355.28 419.523V444.563C355.286 446.683 356.131 448.714 357.63 450.213C359.129 451.712 361.16 452.556 363.28 452.563H465.36C467.48 452.556 469.511 451.712 471.01 450.213C472.509 448.714 473.353 446.683 473.36 444.563V419.523C473.355 413.159 470.825 407.057 466.325 402.558C461.825 398.058 455.723 395.528 449.36 395.523Z" fill="white"/>
<path d="M265.12 147.843H198.4C187.668 176.883 175.15 210.515 164.4 239.603H229.76C238.711 216.323 265.12 147.843 265.12 147.843Z" fill="white"/>
<path d="M349.04 147.843H282.24C271.062 176.916 258.058 210.531 246.88 239.603H313.76C322.744 216.343 349.04 147.843 349.04 147.843Z" fill="white"/>
<path d="M456 147.843H450.16C438.975 176.946 425.969 210.55 414.8 239.603C426.841 239.579 444 239.619 456 239.603C462.359 239.584 468.453 237.049 472.95 232.553C477.447 228.056 479.981 221.962 480 215.603V171.843C479.995 165.479 477.465 159.377 472.965 154.878C468.465 150.378 462.363 147.848 456 147.843Z" fill="white"/>
<path d="M63.28 239.603C74.6665 210.525 87.574 176.92 98.96 147.843H56C49.6364 147.848 43.5348 150.378 39.035 154.878C34.5352 159.378 32.005 165.479 32 171.843V215.603C32.0186 221.962 34.5532 228.056 39.05 232.553C43.5469 237.05 49.6405 239.584 56 239.603H63.28Z" fill="white"/>
<path d="M147.28 239.603C158.074 210.495 170.635 176.976 181.36 147.843H116.16C108.544 167.275 82.8933 233.317 80.48 239.603C99.8257 239.585 128.025 239.616 147.28 239.603Z" fill="white"/>
<path d="M397.68 239.603C408.861 210.47 421.847 176.988 433.04 147.843H366.24C355.018 176.87 342.039 210.528 330.8 239.603C342.218 239.609 387.188 239.599 397.68 239.603Z" fill="white"/>
<path d="M446.4 131.843V91.5225C446.4 83.0144 443.02 74.8547 437.004 68.8385C430.988 62.8223 422.828 59.4425 414.32 59.4425C405.812 59.4425 397.652 62.8223 391.636 68.8385C385.62 74.8547 382.24 83.0144 382.24 91.5225V131.843C392.348 131.843 442.488 131.864 446.4 131.843Z" fill="white"/>
<path d="M138.8 131.843V91.5227C138.754 83.0555 135.358 74.951 129.354 68.9802C123.35 63.0094 115.227 59.6579 106.76 59.658C98.2926 59.6581 90.1696 63.0098 84.166 68.9807C78.1624 74.9517 74.7665 83.0563 74.7202 91.5234V131.843C83.0652 131.842 130.509 131.819 138.8 131.843Z" fill="white"/>
<path d="M382.24 255.603V379.523H446.4V255.603C429.843 255.624 382.24 255.603 382.24 255.603Z" fill="white"/>
</svg>
