<svg width="512" height="512" viewBox="0 0 512 512" fill="none" xmlns="http://www.w3.org/2000/svg">
<path d="M456 68.08H56C49.6363 68.085 43.5347 70.6151 39.0349 75.1149C34.5351 79.6147 32.005 85.7163 32 92.08V419.92C32.005 426.284 34.5352 432.385 39.035 436.885C43.5348 441.385 49.6364 443.915 56 443.92H456C462.364 443.915 468.465 441.385 472.965 436.885C477.465 432.385 479.995 426.284 480 419.92V92.08C479.995 85.7163 477.465 79.6147 472.965 75.1149C468.465 70.6151 462.364 68.085 456 68.08ZM123.28 323.76C125.381 323.791 127.386 324.648 128.861 326.145C130.335 327.642 131.162 329.659 131.162 331.76C131.162 333.861 130.335 335.878 128.861 337.375C127.386 338.872 125.381 339.729 123.28 339.76C121.179 339.729 119.174 338.872 117.699 337.375C116.225 335.878 115.398 333.861 115.398 331.76C115.398 329.659 116.225 327.642 117.699 326.145C119.174 324.648 121.179 323.791 123.28 323.76ZM115.28 273.76C115.311 271.659 116.168 269.654 117.665 268.179C119.162 266.705 121.179 265.878 123.28 265.878C125.381 265.878 127.398 266.705 128.895 268.179C130.392 269.654 131.249 271.659 131.28 273.76C131.249 275.861 130.392 277.866 128.895 279.341C127.398 280.815 125.381 281.642 123.28 281.642C121.179 281.642 119.162 280.815 117.665 279.341C116.168 277.866 115.311 275.861 115.28 273.76ZM123.28 381.76C125.382 381.79 127.388 382.646 128.864 384.143C130.34 385.64 131.168 387.658 131.168 389.76C131.168 391.862 130.34 393.88 128.864 395.377C127.388 396.874 125.382 397.73 123.28 397.76C121.178 397.73 119.172 396.874 117.696 395.377C116.22 393.88 115.392 391.862 115.392 389.76C115.392 387.658 116.22 385.64 117.696 384.143C119.172 382.646 121.178 381.79 123.28 381.76ZM183.6 323.76H396.72C398.82 323.793 400.823 324.65 402.297 326.147C403.771 327.643 404.597 329.66 404.597 331.76C404.597 333.861 403.771 335.877 402.297 337.374C400.823 338.87 398.82 339.728 396.72 339.76H183.6C181.498 339.73 179.492 338.874 178.016 337.377C176.54 335.88 175.712 333.862 175.712 331.76C175.712 329.658 176.54 327.64 178.016 326.143C179.492 324.646 181.498 323.79 183.6 323.76ZM175.6 273.76C175.596 272.708 175.801 271.666 176.202 270.694C176.602 269.722 177.191 268.839 177.935 268.095C178.679 267.351 179.562 266.762 180.534 266.362C181.506 265.961 182.548 265.756 183.6 265.76H396.72C398.842 265.76 400.877 266.603 402.377 268.103C403.877 269.603 404.72 271.638 404.72 273.76C404.72 275.882 403.877 277.917 402.377 279.417C400.877 280.917 398.842 281.76 396.72 281.76H183.6C182.548 281.764 181.506 281.559 180.534 281.158C179.562 280.758 178.679 280.169 177.935 279.425C177.191 278.681 176.602 277.798 176.202 276.826C175.801 275.854 175.596 274.812 175.6 273.76ZM183.6 381.76H396.72C398.821 381.791 400.826 382.648 402.301 384.145C403.775 385.642 404.602 387.659 404.602 389.76C404.602 391.862 403.775 393.879 402.3 395.376C400.825 396.872 398.821 397.729 396.72 397.76H183.6C181.497 397.732 179.489 396.876 178.012 395.379C176.535 393.882 175.707 391.863 175.707 389.76C175.707 387.657 176.535 385.638 178.012 384.141C179.489 382.644 181.497 381.788 183.6 381.76ZM429.28 235.6H82.72C80.6169 235.572 78.6094 234.717 77.1321 233.219C75.6549 231.722 74.8266 229.703 74.8266 227.6C74.8266 225.497 75.6549 223.478 77.1321 221.981C78.6094 220.484 80.6169 219.628 82.72 219.6H89.76V145.6C89.7661 143.48 90.611 141.449 92.1099 139.95C93.6089 138.451 95.6402 137.606 97.76 137.6H156.16C157.212 137.596 158.254 137.801 159.226 138.201C160.198 138.602 161.081 139.191 161.825 139.935C162.569 140.679 163.158 141.562 163.559 142.534C163.959 143.506 164.164 144.548 164.16 145.6V219.6H175.76V115.68C175.756 114.628 175.961 113.586 176.362 112.614C176.762 111.642 177.351 110.759 178.095 110.015C178.839 109.271 179.722 108.682 180.694 108.282C181.666 107.881 182.708 107.676 183.76 107.68H242.24C243.292 107.676 244.334 107.881 245.306 108.282C246.278 108.682 247.161 109.271 247.905 110.015C248.649 110.759 249.238 111.642 249.638 112.614C250.039 113.586 250.244 114.628 250.24 115.68V219.6H261.76V186.56C261.766 184.44 262.611 182.409 264.11 180.91C265.609 179.411 267.64 178.566 269.76 178.56H328.24C330.36 178.566 332.391 179.411 333.89 180.91C335.389 182.409 336.234 184.44 336.24 186.56V219.6H347.84V158.4C347.836 157.348 348.041 156.306 348.442 155.334C348.842 154.362 349.431 153.479 350.175 152.735C350.919 151.991 351.802 151.402 352.774 151.002C353.746 150.601 354.788 150.396 355.84 150.4H414.24C416.36 150.406 418.391 151.251 419.89 152.75C421.389 154.249 422.234 156.28 422.24 158.4V219.6H429.28C431.382 219.63 433.388 220.486 434.864 221.983C436.34 223.48 437.168 225.498 437.168 227.6C437.168 229.702 436.34 231.72 434.864 233.217C433.388 234.714 431.382 235.57 429.28 235.6Z" fill="white"/>
<path d="M105.76 153.6H148.16V219.6H105.76V153.6Z" fill="white"/>
<path d="M191.76 123.68H234.24V219.6H191.76V123.68Z" fill="white"/>
<path d="M277.76 194.56H320.24V219.6H277.76V194.56Z" fill="white"/>
<path d="M363.84 166.4H406.24V219.6H363.84V166.4Z" fill="white"/>
</svg>
