<svg width="512" height="512" viewBox="0 0 512 512" fill="none" xmlns="http://www.w3.org/2000/svg">
<path d="M98.0801 338.6V89.357C76.1501 80.0732 45.9154 83.2788 32.8622 112.189C32.2549 113.326 31.9576 114.604 32.0001 115.892V347.647C40.628 339.32 51.6822 333.954 63.5622 332.328C75.4422 330.702 87.5316 332.898 98.0801 338.6Z" fill="white"/>
<path d="M471.385 168.36H115.311V356.262C115.286 357.675 114.917 359.061 114.237 360.3C113.557 361.539 112.586 362.594 111.408 363.374C110.229 364.154 108.878 364.636 107.472 364.778C106.066 364.919 104.646 364.717 103.336 364.188C102.158 363.663 101.102 362.9 100.234 361.948C96.5889 357.85 92.1166 354.572 87.1119 352.33C82.1073 350.087 76.684 348.931 71.2 348.939C60.8035 348.939 50.8328 353.069 43.4814 360.42C36.13 367.771 32 377.742 32 388.139C32 398.535 36.13 408.506 43.4814 415.857C50.8328 423.209 60.8035 427.339 71.2 427.339H471.385C473.667 427.332 475.855 426.422 477.469 424.808C479.083 423.194 479.993 421.006 480 418.723V176.975C480.004 175.843 479.784 174.721 479.352 173.674C478.921 172.627 478.286 171.675 477.485 170.875C476.685 170.074 475.733 169.439 474.686 169.008C473.639 168.576 472.517 168.356 471.385 168.36ZM158.043 190.071H238.683C240.95 190.098 243.116 191.017 244.71 192.63C246.303 194.243 247.197 196.419 247.197 198.686C247.197 200.954 246.303 203.13 244.709 204.743C243.115 206.355 240.95 207.275 238.683 207.302H158.043C155.776 207.275 153.61 206.355 152.017 204.743C150.423 203.13 149.529 200.954 149.529 198.686C149.529 196.419 150.423 194.243 152.017 192.63C153.61 191.017 155.776 190.098 158.043 190.071ZM149.428 236.335C149.424 235.203 149.644 234.081 150.076 233.034C150.507 231.987 151.142 231.035 151.942 230.235C152.743 229.434 153.694 228.799 154.742 228.368C155.789 227.936 156.911 227.716 158.043 227.72H238.683C239.817 227.717 240.94 227.937 241.988 228.368C243.036 228.8 243.989 229.434 244.792 230.234C245.595 231.034 246.232 231.985 246.666 233.032C247.101 234.079 247.325 235.202 247.325 236.335C247.325 237.469 247.101 238.591 246.666 239.638C246.232 240.685 245.595 241.636 244.792 242.437C243.989 243.237 243.036 243.871 241.988 244.303C240.94 244.734 239.817 244.954 238.683 244.951H158.043C155.76 244.944 153.573 244.034 151.959 242.42C150.344 240.806 149.434 238.618 149.428 236.335ZM433.822 391.412C433.826 392.545 433.605 393.667 433.174 394.714C432.742 395.761 432.108 396.712 431.307 397.513C430.506 398.314 429.555 398.948 428.508 399.38C427.461 399.811 426.339 400.032 425.206 400.028H176.48C174.197 400.021 172.01 399.111 170.395 397.497C168.781 395.883 167.871 393.695 167.865 391.412V340.323C167.861 339.191 168.081 338.069 168.512 337.021C168.944 335.974 169.578 335.023 170.379 334.222C171.18 333.421 172.131 332.787 173.178 332.355C174.225 331.924 175.347 331.704 176.48 331.708H230.067V297.849C230.064 296.717 230.284 295.595 230.715 294.548C231.147 293.501 231.781 292.549 232.582 291.749C233.383 290.948 234.334 290.313 235.381 289.882C236.428 289.45 237.55 289.23 238.683 289.234H292.271V257.788C292.277 255.505 293.187 253.317 294.802 251.703C296.416 250.089 298.603 249.179 300.886 249.172H354.474V224.791C354.47 223.659 354.69 222.536 355.121 221.489C355.553 220.442 356.187 219.491 356.988 218.69C357.789 217.89 358.74 217.255 359.788 216.824C360.835 216.392 361.957 216.172 363.089 216.176H425.206C426.339 216.172 427.461 216.392 428.508 216.824C429.555 217.255 430.506 217.89 431.307 218.691C432.108 219.491 432.742 220.443 433.174 221.49C433.606 222.537 433.826 223.659 433.822 224.791V391.412Z" fill="white"/>
<path d="M371.704 233.408H416.592V382.8H371.704V233.408Z" fill="white"/>
<path d="M309.504 266.4H354.48V382.792H309.504V266.4Z" fill="white"/>
<path d="M247.296 306.464H292.272V382.8H247.296V306.464Z" fill="white"/>
<path d="M185.096 348.936H230.072V382.792H185.096V348.936Z" fill="white"/>
</svg>
