<svg width="512" height="512" viewBox="0 0 512 512" fill="none" xmlns="http://www.w3.org/2000/svg">
<path d="M256.24 40.96C250.463 35.261 242.675 32.0658 234.56 32.0658C226.445 32.0658 218.657 35.261 212.88 40.96L118.4 135.76C115.565 138.594 113.32 141.963 111.796 145.67C110.272 149.378 109.498 153.351 109.52 157.36V449.44C109.533 457.541 112.757 465.307 118.485 471.035C124.213 476.763 131.979 479.987 140.08 480H329.04C337.141 479.987 344.907 476.763 350.635 471.035C356.363 465.307 359.587 457.541 359.6 449.44V157.36C359.607 153.346 358.819 149.371 357.281 145.663C355.743 141.956 353.486 138.59 350.64 135.76L256.24 40.96ZM195.2 414.48H273.92C276.022 414.51 278.028 415.366 279.504 416.863C280.98 418.36 281.808 420.378 281.807 422.48C281.807 424.583 280.98 426.6 279.504 428.097C278.028 429.594 276.022 430.45 273.92 430.48H195.2C193.099 430.449 191.094 429.592 189.619 428.095C188.145 426.598 187.318 424.581 187.318 422.48C187.318 420.379 188.145 418.362 189.619 416.865C191.094 415.368 193.099 414.511 195.2 414.48ZM187.2 386.72C187.206 384.6 188.051 382.569 189.55 381.07C191.049 379.571 193.08 378.726 195.2 378.72H273.92C276.042 378.72 278.077 379.563 279.577 381.063C281.077 382.563 281.92 384.598 281.92 386.72C281.92 388.842 281.077 390.877 279.577 392.377C278.077 393.877 276.042 394.72 273.92 394.72H195.2C193.08 394.714 191.049 393.869 189.55 392.37C188.051 390.871 187.206 388.84 187.2 386.72ZM311.04 261.44C309.634 264.553 304.19 271.174 305.28 274.8L306.96 284.56C307.894 289.896 306.924 295.391 304.219 300.085C301.514 304.779 297.246 308.373 292.16 310.24C289.049 311.738 280.66 313.293 279.12 316.8L274.16 325.36C271.453 330.054 267.179 333.645 262.088 335.503C256.997 337.361 251.415 337.367 246.32 335.52L236.96 332.08C233.585 330.416 226.027 334.663 222.8 335.52C217.704 337.348 212.128 337.332 207.042 335.476C201.956 333.62 197.681 330.041 194.96 325.36C192.993 322.576 189.941 314.623 186.32 313.68L176.96 310.24C171.854 308.401 167.566 304.813 164.856 300.111C162.146 295.409 161.191 289.899 162.16 284.56L163.84 274.8C164.932 271.219 159.456 264.462 158.08 261.44C155.367 256.747 154.394 251.248 155.33 245.909C156.266 240.57 159.052 235.73 163.2 232.24L170.8 225.92C173.927 223.762 174.044 215.192 174.96 211.92C175.885 206.572 178.674 201.726 182.834 198.24C186.993 194.754 192.253 192.855 197.68 192.88C201.047 192.529 209.562 194.021 212.08 191.2L219.76 184.8C223.903 181.313 229.145 179.4 234.56 179.4C239.975 179.4 245.217 181.313 249.36 184.8C252.216 186.759 257.709 193.29 261.52 192.88H271.44C276.863 192.868 282.117 194.771 286.274 198.255C290.431 201.738 293.224 206.578 294.16 211.92L295.84 221.68C296.157 225.485 303.502 229.846 305.92 232.24C310.068 235.73 312.854 240.57 313.79 245.909C314.726 251.248 313.753 256.747 311.04 261.44ZM234.56 85.52C241.97 85.593 249.052 88.5878 254.266 93.8534C259.48 99.1191 262.405 106.23 262.404 113.64C262.404 121.051 259.479 128.161 254.265 133.427C249.051 138.693 241.969 141.687 234.559 141.76C227.149 141.687 220.068 138.692 214.854 133.427C209.64 128.161 206.715 121.05 206.715 113.64C206.715 106.229 209.64 99.1185 214.854 93.853C220.068 88.5874 227.15 85.5928 234.56 85.52Z" fill="white"/>
<path d="M393.578 135.734L299.101 40.9883C297.594 39.5333 295.575 38.7278 293.48 38.745C291.385 38.7622 289.38 39.6008 287.896 41.0804C286.412 42.5601 285.568 44.5627 285.545 46.658C285.522 48.7532 286.322 50.7738 287.773 52.2856L382.25 147.027C383.602 148.38 384.675 149.986 385.405 151.753C386.136 153.521 386.511 155.415 386.508 157.328V449.414C386.542 451.513 387.399 453.515 388.896 454.988C390.393 456.461 392.408 457.286 394.508 457.286C396.608 457.286 398.623 456.46 400.12 454.988C401.616 453.515 402.474 451.513 402.508 449.414V157.328C402.517 153.318 401.732 149.345 400.2 145.639C398.667 141.933 396.417 138.567 393.578 135.734Z" fill="white"/>
<path d="M234.56 125.76C237.739 125.707 240.771 124.407 243.001 122.14C245.23 119.873 246.48 116.82 246.48 113.64C246.48 110.46 245.23 107.408 243.001 105.14C240.771 102.873 237.739 101.573 234.56 101.52C231.381 101.573 228.349 102.873 226.119 105.14C223.89 107.408 222.64 110.46 222.64 113.64C222.64 116.82 223.89 119.873 226.119 122.14C228.349 124.407 231.381 125.707 234.56 125.76Z" fill="white"/>
<path d="M288 238.16C283.839 234.681 281.058 229.829 280.16 224.48C278.807 219.079 279.498 208.804 271.44 208.88H261.52C256.095 208.896 250.843 206.966 246.72 203.44C242.279 200.196 236.034 191.851 230 197.121C223.848 202.489 216.305 209.389 207.6 208.88C202.113 209.248 191.953 206.754 190.72 214.72C189.431 222.84 188.213 232.804 181.12 238.16C177.198 241.966 167.772 246.582 171.92 253.44L176.88 262.08C181.75 269.341 179.444 279.371 177.919 287.36C176.409 295.322 186.643 296.347 191.76 298.64C196.865 300.485 201.147 304.086 203.84 308.8C206.905 313.391 209.844 323.32 217.36 320.48C222.781 317.921 228.597 316.298 234.56 315.68C240.512 316.354 246.319 317.974 251.76 320.481C259.22 323.305 262.221 313.44 265.28 308.8C267.973 304.087 272.255 300.485 277.36 298.64C282.403 296.344 292.735 295.279 291.2 287.36C289.631 279.343 287.392 269.361 292.24 262.08C294.651 257.16 301.835 249.588 295.6 244.56L288 238.16Z" fill="white"/>
</svg>
