<svg width="512" height="512" viewBox="0 0 512 512" fill="none" xmlns="http://www.w3.org/2000/svg">
<path d="M120.972 173.483L130.699 178.612C133.3 179.996 136.237 180.621 139.176 180.418C142.115 180.215 144.938 179.191 147.323 177.462C149.667 175.708 151.489 173.35 152.595 170.639C153.701 167.929 154.049 164.969 153.601 162.076L151.656 151.2C151.626 151.021 151.643 150.838 151.705 150.667C151.767 150.497 151.872 150.345 152.01 150.227L159.968 142.446C162.014 140.374 163.45 137.779 164.119 134.945C164.787 132.111 164.662 129.148 163.758 126.38C162.854 123.613 161.205 121.147 158.992 119.255C156.779 117.363 154.088 116.116 151.214 115.652L140.337 114.149C139.969 114.023 139.657 113.773 139.453 113.441L134.59 103.626C133.306 100.982 131.306 98.7523 128.818 97.1891C126.329 95.6259 123.452 94.7922 120.513 94.783C117.574 94.7738 114.692 95.5894 112.194 97.137C109.696 98.6846 107.682 100.902 106.381 103.537L101.518 113.441C101.869 114.387 90.175 115.331 89.7573 115.564C86.8713 116.026 84.1689 117.276 81.9475 119.176C79.7261 121.075 78.0719 123.551 77.1669 126.33C76.2619 129.109 76.1412 132.084 76.8181 134.928C77.495 137.771 78.9433 140.373 81.0035 142.446L88.8726 150.139C89.0104 150.256 89.1155 150.408 89.1775 150.578C89.2395 150.749 89.2564 150.932 89.2266 151.111L87.2808 161.988C86.8335 164.869 87.1884 167.818 88.3067 170.512C89.4249 173.205 91.2633 175.538 93.62 177.255C95.9768 178.972 98.7611 180.008 101.667 180.247C104.574 180.486 107.49 179.92 110.096 178.612C110.645 178.524 120.651 172.539 120.972 173.483Z" fill="white"/>
<path d="M430.997 142.446C433.054 140.379 434.5 137.783 435.175 134.946C435.85 132.109 435.728 129.141 434.822 126.369C433.917 123.597 432.262 121.129 430.042 119.238C427.822 117.347 425.123 116.106 422.242 115.652L411.366 114.149C409.194 110.803 407.301 107.283 405.707 103.626C404.388 101.01 402.371 98.8097 399.878 97.2696C397.386 95.7295 394.515 94.9095 391.586 94.9003C388.656 94.8912 385.781 95.6934 383.279 97.2179C380.777 98.7425 378.745 100.93 377.41 103.538L372.547 113.441C372.472 113.599 372.36 113.737 372.222 113.845C372.084 113.952 371.923 114.026 371.751 114.06L360.786 115.563C357.892 116.013 355.18 117.256 352.95 119.154C350.72 121.052 349.059 123.531 348.152 126.316C347.246 129.1 347.128 132.082 347.813 134.929C348.498 137.776 349.958 140.378 352.032 142.446L359.99 150.138C360.099 150.274 360.178 150.43 360.224 150.597C360.27 150.765 360.28 150.939 360.255 151.111L358.399 161.988C357.869 164.884 358.179 167.871 359.291 170.597C360.404 173.323 362.272 175.675 364.677 177.374C367.044 179.101 369.846 180.133 372.768 180.352C375.69 180.57 378.615 179.968 381.213 178.612L390.94 173.483C391.215 172.534 401.223 178.541 401.728 178.612C404.329 179.947 407.248 180.536 410.163 180.315C413.078 180.094 415.875 179.072 418.245 177.361C420.615 175.649 422.466 173.316 423.593 170.619C424.72 167.921 425.079 164.965 424.63 162.076C423.737 158.184 423.204 154.218 423.039 150.228L430.997 142.446Z" fill="white"/>
<path d="M224.432 87.2667C224.559 87.3908 224.65 87.5463 224.696 87.7173C224.743 87.8883 224.743 88.0686 224.697 88.2398L222.84 99.1163C222.389 101.999 222.742 104.949 223.859 107.644C224.977 110.339 226.815 112.674 229.173 114.392C231.531 116.11 234.317 117.145 237.225 117.383C240.132 117.621 243.049 117.052 245.655 115.74L255.381 110.612C264.322 113.369 272.58 122.303 282.794 114.59C285.168 112.864 287.013 110.509 288.122 107.791C289.232 105.073 289.56 102.1 289.072 99.205C288.191 95.3103 287.658 91.345 287.48 87.3559L295.439 79.6625C297.535 77.6186 299.019 75.0294 299.723 72.1872C300.426 69.3449 300.321 66.3626 299.42 63.5767C298.519 60.7908 296.858 58.3121 294.623 56.4202C292.388 54.5283 289.669 53.2985 286.773 52.8695L275.808 51.2775C274.976 51.5919 270.545 41.1791 270.148 40.7547C268.846 38.1261 266.836 35.9135 264.344 34.3666C261.852 32.8197 258.977 32 256.044 32C253.111 32 250.236 32.8197 247.744 34.3666C245.252 35.9135 243.241 38.1261 241.94 40.7547L237.077 50.5702C236.869 50.8794 236.554 51.1002 236.192 51.1893L225.316 52.7813C222.414 53.1986 219.686 54.4171 217.439 56.2999C215.192 58.1827 213.515 60.655 212.596 63.4389C211.677 66.2229 211.553 69.2079 212.238 72.0584C212.923 74.9088 214.39 77.5117 216.473 79.5743L224.432 87.2667Z" fill="white"/>
<path d="M226.023 431.807C224.827 432.805 223.39 433.472 221.856 433.743C220.322 434.014 218.743 433.88 217.277 433.352C215.812 432.825 214.509 431.923 213.499 430.737C212.49 429.55 211.808 428.12 211.521 426.589L203.563 380.166L165.274 392.987C159.089 395.034 153.44 398.439 148.743 402.952C144.045 407.466 140.418 412.975 138.127 419.073L115.224 480H228.853L245.919 434.814L236.281 422.876L226.023 431.807Z" fill="white"/>
<path d="M219.92 371.056L226.288 408.112L231.856 403.336L243.888 392.72L223.904 366.368L219.92 371.056Z" fill="white"/>
<path d="M285.535 408.02L291.636 370.969L287.215 366.106L267.938 392.634C271.646 395.827 281.96 404.981 285.535 408.02Z" fill="white"/>
<path d="M346.726 392.987L308.084 379.812L300.479 426.501C300.208 428.042 299.536 429.484 298.532 430.683C297.527 431.882 296.226 432.796 294.757 433.333C293.288 433.87 291.704 434.012 290.163 433.744C288.622 433.477 287.178 432.808 285.977 431.807L275.719 422.876L266.081 434.814L283.147 480H396.776L373.874 419.073C371.582 412.975 367.955 407.466 363.257 402.952C358.56 398.439 352.911 395.034 346.726 392.987Z" fill="white"/>
<path d="M256 419.16L262.368 411.288L256 405.72L249.632 411.288L256 419.16Z" fill="white"/>
<path d="M247.688 480H264.312L256 458.16L247.688 480Z" fill="white"/>
<path d="M310.294 274.23V237.002C294.996 233.996 282.175 220.201 273.774 208.529C268.124 223.675 257.973 237.798 240.436 237.444L199.23 237.444V274.23C202.052 347.784 307.476 347.781 310.294 274.23Z" fill="white"/>
<path d="M333.871 248.498C333.384 246.455 332.438 244.549 331.105 242.925C329.772 241.301 328.087 240.001 326.178 239.124V263.972C329.024 262.646 331.335 260.393 332.733 257.582C334.13 254.77 334.532 251.567 333.871 248.498Z" fill="white"/>
<path d="M183.346 263.973V239.125C180.989 240.235 178.997 241.992 177.602 244.192C176.206 246.392 175.465 248.944 175.465 251.549C175.465 254.154 176.206 256.705 177.602 258.905C178.997 261.105 180.989 262.862 183.346 263.973Z" fill="white"/>
<path d="M277.576 343.822C263.109 348.513 247.549 348.637 233.009 344.176V349.128L255.823 379.193L277.576 349.216V343.822Z" fill="white"/>
<path d="M240.437 219.759C242.584 219.792 244.705 219.273 246.594 218.251C248.483 217.229 250.078 215.738 251.225 213.922C256.501 205.09 260.351 195.481 262.632 185.449C263.093 183.723 264.065 182.176 265.419 181.009C266.773 179.843 268.447 179.112 270.223 178.912C271.998 178.711 273.793 179.051 275.373 179.886C276.953 180.721 278.245 182.013 279.079 183.593C284.209 193.585 302.247 221.97 317.987 219.847C320.463 219.671 322.95 219.73 325.415 220.024V204.726C325.415 173.246 304.724 147.602 279.434 147.602H227.084C201.706 147.602 181.103 173.246 181.103 204.726V220.909C185.818 218.67 234.351 220.168 240.437 219.759Z" fill="white"/>
</svg>
