<svg id="Gylph" height="512" viewBox="0 0 64 64" width="512" xmlns="http://www.w3.org/2000/svg"><path d="m49.4 33.8c3.5051-14.09477-7.88634-28.389-22.40021-28.15981a22.95919 22.95919 0 0 0 -20.51979 33.33981 2.7628 2.7628 0 0 1 .13 2.08l-2.42 7.52a2.28284 2.28284 0 0 0 2.87 2.87l7.52-2.42a2.71427 2.71427 0 0 1 2.08.14 22.95857 22.95857 0 0 0 32.74-15.37zm-17.89-1.97a8.30529 8.30529 0 0 1 -8.91-.00008c-3.50325 1.42995-5.7198 4.39318-5.67 7.67008a1.00264 1.00264 0 1 1 -2-.12 10.2003 10.2003 0 0 1 5.99-8.98c-4.80331-5.16089-.93971-13.91331 6.14019-13.81992 7.06786-.09138 10.9529 8.66334 6.13966 13.82a10.20109 10.20109 0 0 1 5.98015 8.97992 1.0027 1.0027 0 1 1 -2 .11995c.04962-3.27664-2.15671-6.25024-5.67-7.66995z"/><path d="m25.88 21.67c.44863.16824 1.08922.559 1.58.32l.77-.32a3.013 3.013 0 0 1 3.33.66l1.73 1.74a6.27489 6.27489 0 0 0 -12.45-.01l1.71-1.73a3.0164 3.0164 0 0 1 3.33-.66z"/><path d="m29 23.51a3.6116 3.6116 0 0 1 -3.12.31993c-.57018-.24738-1.39315-.68835-1.91-.08988l-2.92 2.94995a6.30006 6.30006 0 0 0 12.02-.00015l-2.93-2.94985a1.046 1.046 0 0 0 -1.14-.23z"/><path d="m58.5 51.79a1.13255 1.13255 0 0 1 .04-.85 13.447 13.447 0 0 0 1.43-7.06 13.60064 13.60064 0 0 0 -8.27-11.4 25.18788 25.18788 0 0 1 -14.53 18.99c-.62.28-1.26.54005-1.91.76a13.42338 13.42338 0 0 0 17.33 4.68 1.10474 1.10474 0 0 1 .84-.06l4.28 1.37a1.72637 1.72637 0 0 0 2.16-2.16z"/></svg>