<svg version="1.2" xmlns="http://www.w3.org/2000/svg" viewBox="0 0 500 500" width="500" height="500">
	<title>instagram-icon</title>
	<style>
		.s0 { fill: #ffffff } 
	</style>
	<path id="Path 0" fill-rule="evenodd" class="s0" d="m403.5 12.6l8 2.3c4.4 1.2 12.1 4.1 17 6.5 4.9 2.3 11.3 5.7 14 7.6 2.8 1.8 7.9 5.8 11.4 8.9 3.6 3.1 9.1 9 12.4 13.1 3.3 4.1 8.3 12.5 11.3 18.5 3 6 6.4 14.8 9.9 28v305l-2.3 8.5c-1.3 4.7-4.7 13.4-7.7 19.5-3.3 6.8-7.9 14.2-12.2 19.5-3.7 4.7-10.6 11.6-15.3 15.3-5.3 4.3-12.7 8.9-19.5 12.2-6.1 3-14.8 6.4-28 10h-305l-8.5-2.2c-4.7-1.3-13.5-4.7-19.5-7.7-6-2.9-14.4-8-18.5-11.3-4.1-3.3-10-8.8-13.1-12.4-3.1-3.5-7.1-8.6-8.9-11.4-1.9-2.7-5.3-9.1-7.6-14-2.4-4.9-5.3-12.6-8.8-25l-0.3-150.3c-0.3-143.3-0.2-150.6 1.6-159.4 1-5.1 3.3-12.9 5-17.3 1.8-4.4 4.9-10.7 6.9-14 1.9-3.3 5.5-8.5 7.8-11.5 2.3-3 6.6-7.8 9.6-10.6 2.9-2.8 7.1-6.4 9.3-8.1 2.2-1.6 6.7-4.6 10-6.6 3.3-1.9 9.6-5 14-6.8 4.4-1.7 11.8-4 16.5-5 8-1.7 17.2-1.8 310.5-1.3zm-316 54.9c-2.8 1.6-7.2 4.9-9.9 7.4-2.7 2.5-6.7 7.3-8.8 10.6-2.1 3.3-4.8 8.9-5.9 12.5-1.9 6.3-1.9 10-1.9 151.8v145.2c3.6 11.2 6.4 17.2 8.5 20.4 2.2 3.3 6.3 8 9.1 10.5 2.9 2.5 7.6 5.8 10.5 7.4 3 1.5 7.9 3.4 10.9 4.2 4.7 1.3 25.7 1.5 150 1.5 130.4 0 145-0.1 150-1.6 3-0.9 8.2-3 11.5-4.7 3.3-1.6 8.7-5.7 12.1-9.1 3.4-3.4 7.5-8.8 9.1-12.1 1.7-3.3 3.8-8.5 4.7-11.5 1.5-5 1.6-19.6 1.6-150 0-124.3-0.2-145.3-1.5-150-0.8-3-2.7-7.9-4.2-10.9-1.6-2.9-4.9-7.6-7.4-10.5-2.5-2.8-7.2-6.9-10.5-9.1-3.2-2.1-9.2-4.9-13.2-6.2l-7.2-2.3c-281.2 0.1-291.9 0.2-297 1.8-3 1-7.8 3.1-10.5 4.7zm292 32.5c14.7 0 17.3 0.2 19.4 1.7 1.4 1 3.1 3.3 3.8 5.1 0.9 2.1 1.3 8 1.3 17.5 0 11.5-0.3 14.9-1.8 17.7-1 2-3.2 4.2-5.2 5.2-2.8 1.5-6.2 1.8-17.8 1.8-9.4 0-15.3-0.4-17.4-1.3-1.8-0.7-4.1-2.4-5.1-3.8-1.5-2.1-1.7-4.7-1.7-19.4 0.1-13.6 0.4-17.5 1.6-19.4 0.9-1.3 2.6-3 3.7-3.7 1.6-1 6.9-1.3 19.2-1.4zm-126.5 23.4c7.4 0.3 17.1 1.2 21.5 2.1 4.4 0.9 11.4 2.8 15.5 4.1 4.1 1.4 11.6 4.6 16.5 7.1 4.9 2.5 12.4 6.8 16.5 9.7 4.1 2.8 11.5 9.2 16.5 14.1 4.9 5 11.3 12.4 14.1 16.5 2.8 4.1 6.6 10.2 8.4 13.5 1.8 3.3 4.8 9.8 6.6 14.5 1.8 4.7 4.3 13.2 5.5 19 1.9 8.5 2.3 13.4 2.3 26 0 11.3-0.5 17.8-1.8 24-1 4.7-3.1 12.1-4.6 16.5-1.5 4.4-4.6 11.8-6.9 16.5-2.4 4.7-6.8 12.1-9.9 16.4-3.2 4.4-9.3 11.6-13.8 16-4.4 4.5-11.6 10.6-16 13.8-4.3 3.1-11.7 7.5-16.4 9.9-4.7 2.3-12.1 5.4-16.5 6.9-4.4 1.5-11.8 3.6-16.5 4.6-6.2 1.3-12.7 1.8-24 1.8-12.6 0-17.5-0.4-26-2.3-5.8-1.2-14.3-3.7-19-5.5-4.7-1.8-11.2-4.8-14.5-6.6-3.3-1.8-9.4-5.6-13.5-8.4-4.1-2.8-11.6-9.2-16.5-14.1-4.9-5-11.3-12.4-14.1-16.5-2.9-4.1-7.2-11.5-9.7-16.5-2.5-4.9-5.7-12.4-7.1-16.5-1.3-4.1-3.2-11.1-4.1-15.5-0.9-4.4-1.9-12.7-2.2-18.5-0.4-6.3-0.1-14.5 0.7-20.5 0.7-5.5 2.3-14 3.7-19 1.3-4.9 4.2-13 6.4-18 2.2-4.9 7-13.5 10.6-19 3.8-5.7 10.6-13.9 15.7-19.1 5.2-5.1 13.4-11.8 19.1-15.6 5.5-3.7 13.6-8.3 18-10.3 4.4-2 11.8-4.8 16.5-6.1 4.7-1.4 12.3-3.2 17-3.9 5.5-0.9 13.2-1.3 22-1.1zm-36.5 54.4c-3.3 1.6-8.3 4.3-11 6.2-2.8 1.9-7.4 5.7-10.4 8.5-2.9 2.7-7.3 7.7-9.6 11-2.4 3.3-5.7 8.9-7.4 12.5-1.7 3.6-4 10.1-5.1 14.5-1.5 5.8-2 11.2-2 19.5 0 8.3 0.5 13.7 2 19.5 1.1 4.4 3.8 11.6 6 16 2.1 4.4 6.5 11.2 9.8 15 3.2 3.9 8.5 9.2 11.8 11.8 3.2 2.7 9.5 6.6 13.9 8.7 4.4 2.2 11.8 4.9 16.5 6.1 7.3 1.8 10.4 2.1 22 1.7 11.2-0.4 14.8-1 21.5-3.2 4.4-1.5 10.5-4.1 13.5-5.8 3-1.7 8.4-5.4 11.9-8.2 3.6-2.8 8.8-8 11.7-11.6 2.8-3.6 6.5-9 8.2-12 1.7-3 4.3-9.1 5.8-13.5 2.2-6.7 2.8-10.3 3.2-21.5 0.4-11.6 0.1-14.7-1.7-22-1.2-4.7-3.9-12.1-6.1-16.5-2.1-4.4-6-10.7-8.7-13.9-2.6-3.3-7.9-8.6-11.8-11.8-3.9-3.3-10.6-7.7-15-9.8-4.4-2.2-11.6-4.9-16-6-6-1.5-11.1-2-20-2-8.5 0.1-14.2 0.7-19.5 2.1-4.1 1.1-10.2 3.2-13.5 4.7z"/>
</svg>