<svg version="1.2" xmlns="http://www.w3.org/2000/svg" viewBox="0 0 500 500" width="500" height="500">
	<title>x-icon</title>
	<style>
		.s0 { fill: #ffffff } 
	</style>
	<path id="Path 0" fill-rule="evenodd" class="s0" d="m76.7 16c40.1 0 73.3 0.4 73.9 0.8 0.7 0.4 4 4.5 7.5 9.1 3.5 4.6 7.1 9.4 7.9 10.6 0.8 1.2 6 8.2 11.6 15.6 5.5 7.4 13.3 17.7 17.1 22.9 3.9 5.2 10.7 14.2 15 20 4.4 5.8 12.1 16.1 17.2 23 5 6.9 10.4 14.1 11.9 16 1.5 1.9 7.5 10 13.5 18 5.9 8 13.1 17.6 16 21.3 2.9 3.8 5.9 7.7 6.7 8.8 1.4 1.8 3.1 0.2 29-27.8 15.1-16.4 31.1-33.6 35.4-38.3 4.4-4.7 10.5-11.2 13.6-14.5 3.1-3.3 8.9-9.6 13-14 4-4.4 10.1-10.9 13.4-14.5 3.4-3.6 9.9-10.8 14.6-16 4.7-5.1 11-12.1 14.1-15.4 3.1-3.4 9.2-9.9 13.5-14.6 4.3-4.7 8.8-9 9.9-9.7 1.4-0.9 8-1.2 21.2-1.3 10.6 0 20 0.2 20.8 0.5 0.8 0.3 1.5 1.1 1.5 1.7-0.1 0.7-2 3.3-4.3 5.8-2.3 2.5-20.4 22-40.2 43.5-19.8 21.4-50.8 54.9-68.9 74.5-18.1 19.5-37.7 40.7-43.5 47-5.8 6.3-12.7 13.7-15.3 16.5-2.6 2.7-4.8 5.6-4.8 6.2 0 0.7 9.1 13.6 20.3 28.5 11.2 15 21.7 29.2 23.3 31.4 1.6 2.3 11.1 15.1 21.2 28.5 10 13.4 20.5 27.3 23.2 30.9 2.7 3.6 7 9.2 9.5 12.5 2.5 3.3 7 9.4 10.1 13.5 3 4.1 8.1 10.9 11.2 15.2 3.1 4.2 7.5 10 9.8 13 2.2 2.9 10.8 14.3 18.9 25.3 8.2 11 16 21.5 17.4 23.4 1.4 1.9 7 9.3 12.4 16.5 5.3 7.2 12.3 16.5 15.6 20.6 3.2 4.1 6.3 8.4 6.9 9.5 1 1.9 0.6 2-8.1 2.7-5.1 0.4-37.3 0.8-71.7 0.8-34.4-0.1-63.9-0.4-65.7-0.8-2.7-0.6-5.5-3.7-17.8-20.2-8.1-10.7-16.9-22.4-19.6-26-2.7-3.6-13.8-18.4-24.6-33-10.8-14.6-27.6-37-37.3-49.9-9.6-12.8-19.5-26.1-22-29.5-2.5-3.4-7.4-9.9-11-14.4-3.6-4.5-6.6-8.2-6.7-8.2-0.2 0-7.2 7.6-15.5 16.8-8.4 9.3-26.5 28.9-40.3 43.8-13.7 14.8-28.6 30.8-33 35.5-4.4 4.7-13.2 14.1-19.6 21-6.4 6.8-13.4 14.5-15.5 17-2.2 2.5-11.8 13.1-21.5 23.5-9.7 10.4-18.9 20-23.1 23.9l-21.1-0.3c-11.7-0.2-21.3-0.5-21.4-0.8-0.2-0.2 0.2-1.3 0.7-2.4 0.6-1.1 2.5-3.5 4.4-5.2 1.9-1.8 14.6-15.4 28.3-30.3 13.6-14.9 38.8-42.1 55.8-60.5 17-18.4 40-43.2 51-55 11-11.9 24.5-26.5 30-32.5 5.5-6 10.8-11.7 11.8-12.7 0.9-1 3.3-3.6 8.7-9.8l-4.6-6.2c-2.5-3.5-7.1-9.7-10.2-13.9-3.1-4.2-7.7-10.3-10.1-13.5-2.5-3.2-9.7-12.8-16-21.2-6.4-8.4-12.9-17.3-14.6-19.6-1.6-2.4-8.2-11.2-14.5-19.7-6.4-8.5-12.4-16.6-13.5-18-1.1-1.4-4.2-5.5-6.8-9-2.6-3.5-7-9.3-9.7-12.9-2.7-3.6-11.9-15.9-20.5-27.5-8.6-11.6-16.6-22.3-17.9-24-1.3-1.7-9.3-12.4-17.9-24-8.6-11.6-18.3-24.4-21.5-28.5-3.2-4.1-7.3-9.6-9-12.2-1.8-2.7-3-5.5-2.7-6.3 0.4-1.3 9.4-1.5 73.2-1.5zm10.8 60c9.7 12.9 19.8 26.4 22.5 30 2.7 3.6 11.8 15.7 20.2 27 8.3 11.3 19 25.6 23.7 31.9 4.7 6.2 9.5 12.5 10.6 14 1.1 1.4 20.6 27.6 43.4 58.1 22.8 30.5 44.8 60 48.8 65.5 4.1 5.5 8.6 11.6 10.1 13.5 1.5 1.9 10.3 13.6 19.5 26 9.3 12.4 19 25.4 21.7 29 2.7 3.6 6.5 8.5 8.4 11 2 2.5 5 6.5 6.8 9 1.7 2.5 12.3 16.8 23.5 31.8l20.3 27.2c52.7 0 64-0.4 64-1 0-0.6-1-2.5-2.2-4.2-1.2-1.8-2.5-3.5-2.8-3.8-0.3-0.3-4-5.2-8.2-11-4.2-5.8-9.3-12.5-11.2-15-2-2.5-5.7-7.4-8.3-10.9-2.7-3.6-7.4-9.9-10.5-14-3.1-4.2-8.6-11.7-12.3-16.6-3.7-4.9-9.2-12.4-12.3-16.6-3.1-4.2-11.2-15-18-24-6.7-9-13.8-18.4-15.7-20.9-1.9-2.5-10.3-13.7-18.6-25-8.4-11.3-21.8-29.3-29.8-40-7.9-10.7-15.6-21-17-22.8-1.4-1.9-4.8-6.4-7.6-10.2-2.7-3.7-10.2-13.7-16.6-22.1-6.3-8.5-12.4-16.6-13.5-18-1-1.4-9.1-12.2-18-24-8.8-11.8-18-24.1-20.5-27.3-2.4-3.2-6.6-8.9-9.4-12.6-2.7-3.7-6.2-8.3-7.6-10.1-1.4-1.9-10.4-13.9-20-26.7l-17.4-23.3c-56.5 0.1-63.5 0.4-63.5 1.4 0 0.6 7.9 11.8 17.5 24.7z"/>
</svg>